<svg width="20" height="20" fill="none" xmlns="http://www.w3.org/2000/svg"><g clip-path="url(#a)"><path d="M8.728 1.664c-3.895 0-7.073 3.177-7.073 7.072 0 3.896 3.178 7.07 7.074 7.07a7.028 7.028 0 0 0 4.376-1.53l3.817 3.816a.833.833 0 1 0 1.178-1.178l-3.818-3.817a7.027 7.027 0 0 0 1.517-4.36c0-3.896-3.175-7.073-7.07-7.073zm0 1.667a5.392 5.392 0 0 1 5.404 5.405 5.39 5.39 0 0 1-5.404 5.404 5.393 5.393 0 0 1-5.407-5.404 5.395 5.395 0 0 1 5.407-5.405z" fill="#FFBE98" fill-opacity=".5"/></g><defs><clipPath id="a"><path fill="#fff" d="M0 0h20v20H0z"/></clipPath></defs></svg>