<svg width="40" height="40" fill="none" xmlns="http://www.w3.org/2000/svg"><path d="M9.333 9.333c-2.204 0-4 1.796-4 4v13.334c0 2.204 1.796 4 4 4h21.334c2.204 0 4-1.796 4-4V13.333c0-2.204-1.796-4-4-4H9.333zm0 1.334h21.334a2.647 2.647 0 0 1 2.666 2.666v13.334a2.647 2.647 0 0 1-2.666 2.666H9.333a2.647 2.647 0 0 1-2.666-2.666V13.333a2.647 2.647 0 0 1 2.666-2.666z" fill="#fff"/><path d="M10.02 13.333a.666.666 0 0 0-.491 1.138l8 8a3.504 3.504 0 0 0 4.942 0l8-8a.667.667 0 0 0-.942-.942l-8 8a2.153 2.153 0 0 1-3.058 0l-8-8a.667.667 0 0 0-.452-.196z" fill="#fff"/></svg>