<svg width="32" height="32" fill="none" xmlns="http://www.w3.org/2000/svg"><path d="M12 1H4a3 3 0 0 0-3 3v8a3 3 0 0 0 3 3h8a3 3 0 0 0 3-3V4a3 3 0 0 0-3-3z" fill="#FFBE98" fill-opacity=".4"/><path d="M28 1h-8a3 3 0 0 0-3 3v8a3 3 0 0 0 3 3h8a3 3 0 0 0 3-3V4a3 3 0 0 0-3-3z" fill="#1E2022"/><path d="M12 17H4a3 3 0 0 0-3 3v8a3 3 0 0 0 3 3h8a3 3 0 0 0 3-3v-8a3 3 0 0 0-3-3z" fill="#FFBE98"/><path d="M28 17h-8a3 3 0 0 0-3 3v8a3 3 0 0 0 3 3h8a3 3 0 0 0 3-3v-8a3 3 0 0 0-3-3z" fill="#FFBE98" fill-opacity=".4"/></svg>