<svg width="30" height="30" viewBox="0 0 30 30" fill="none" xmlns="http://www.w3.org/2000/svg">
<g clip-path="url(#clip0_285_482)">
<path opacity="0.99" d="M3.85589 -0.000696503C3.73165 -0.000611779 3.61252 0.0487656 3.52466 0.136592C3.43681 0.224417 3.38741 0.343511 3.38733 0.467715V29.5307C3.38741 29.6549 3.43681 29.774 3.52466 29.8618C3.61252 29.9496 3.73165 29.999 3.85589 29.9991H26.1465C26.2708 29.999 26.3899 29.9496 26.4778 29.8618C26.5656 29.774 26.615 29.6549 26.6151 29.5307V9.51414C26.6158 9.39139 26.5682 9.27328 26.4827 9.18518L17.6981 0.181662V0.178092C17.6868 0.165539 17.6749 0.153603 17.6623 0.142336C17.6499 0.129683 17.6368 0.117745 17.623 0.10658C17.6093 0.0950426 17.595 0.0842983 17.5801 0.0743994C17.5662 0.0653033 17.5519 0.0569481 17.5371 0.0493693C17.5289 0.0455516 17.5206 0.0419739 17.5121 0.038641C17.4969 0.0318593 17.4814 0.0258889 17.4656 0.0207548C17.4573 0.0181375 17.449 0.0157504 17.4406 0.0135965H17.4298C17.4074 0.00836139 17.3847 0.00477596 17.3618 0.00286868C17.3535 0.0014539 17.3451 0.000263444 17.3368 -0.000701305H17.326H17.3117L3.85589 -0.000696503ZM4.32445 0.936127H17.1258L25.678 9.70365V29.0623H4.32445V0.936127Z" fill="black"/>
<path opacity="0.99" d="M17.3122 -0.000914005C17.1904 0.00288459 17.0749 0.0538967 16.9901 0.141324C16.9054 0.228751 16.8579 0.34573 16.8579 0.467498V9.51392C16.858 9.63813 16.9074 9.75722 16.9952 9.84505C17.0831 9.93287 17.2022 9.98225 17.3265 9.98233H26.1469C26.2394 9.98271 26.33 9.95568 26.4073 9.90467C26.4845 9.85366 26.5449 9.78094 26.5808 9.69567C26.6168 9.61041 26.6267 9.51641 26.6093 9.42553C26.5919 9.33464 26.548 9.25094 26.4831 9.18496L17.6627 0.142112C17.6174 0.0952228 17.5629 0.0582851 17.5025 0.0336584C17.4422 0.00903175 17.3773 -0.00274283 17.3122 -0.000914005ZM17.795 1.62244L25.0381 9.04551H17.795V1.62244Z" fill="black"/>
<g opacity="0.99">
<path d="M11.773 22.6781C11.773 22.9741 11.7241 23.2411 11.6265 23.4792C11.5288 23.7172 11.3884 23.9202 11.2053 24.088C11.0253 24.2559 10.8025 24.3856 10.537 24.4771C10.2745 24.5687 9.96018 24.6145 9.59396 24.6145H8.92104V26.7477C8.92104 26.7721 8.91341 26.7935 8.89815 26.8118C8.88594 26.8301 8.86458 26.8453 8.83406 26.8575C8.80659 26.8668 8.76692 26.8744 8.71504 26.8804C8.66621 26.8896 8.60365 26.8943 8.52735 26.8943C8.45106 26.8943 8.38697 26.8896 8.33509 26.8804C8.28626 26.8743 8.24658 26.8667 8.21607 26.8575C8.18555 26.8453 8.16419 26.8301 8.15198 26.8118C8.13977 26.7935 8.13367 26.7721 8.13367 26.7477V21.2819C8.13367 21.1598 8.16571 21.0728 8.2298 21.0209C8.29389 20.9691 8.3656 20.9431 8.44495 20.9431H9.71298C9.84116 20.9431 9.96323 20.9492 10.0792 20.9614C10.1982 20.9706 10.3371 20.9935 10.4958 21.0301C10.6575 21.0637 10.8208 21.1293 10.9856 21.2269C11.1534 21.3216 11.2954 21.4391 11.4113 21.5794C11.5273 21.7198 11.6158 21.8831 11.6768 22.0692C11.7409 22.2524 11.773 22.4553 11.773 22.6781ZM10.9444 22.7422C10.9444 22.5011 10.8986 22.2996 10.8071 22.1379C10.7186 21.9762 10.6072 21.8556 10.4729 21.7763C10.3417 21.6969 10.2043 21.6466 10.0609 21.6252C9.92051 21.6038 9.78317 21.5932 9.64889 21.5932H8.92104V23.969H9.63058C9.86862 23.969 10.0655 23.9385 10.2211 23.8774C10.3798 23.8164 10.5126 23.7325 10.6194 23.6257C10.7262 23.5158 10.8071 23.3861 10.862 23.2365C10.9169 23.084 10.9444 22.9192 10.9444 22.7422ZM17.5409 23.8179C17.5409 24.3306 17.4753 24.7793 17.3441 25.1638C17.2128 25.5453 17.0206 25.8626 16.7673 26.1159C16.517 26.3662 16.2088 26.5539 15.8426 26.679C15.4763 26.8041 15.0399 26.8667 14.5333 26.8667H13.279C13.2088 26.8667 13.1417 26.8438 13.0776 26.798C13.0166 26.7492 12.9861 26.6653 12.9861 26.5462V21.2636C12.9861 21.1445 13.0166 21.0621 13.0776 21.0164C13.1417 20.9675 13.2088 20.9431 13.279 20.9431H14.6203C15.133 20.9431 15.5664 21.0103 15.9204 21.1445C16.2744 21.2758 16.5704 21.4665 16.8085 21.7168C17.0496 21.9639 17.2311 22.2646 17.3532 22.6186C17.4783 22.9726 17.5409 23.3724 17.5409 23.8179ZM16.7123 23.85C16.7123 23.5295 16.6727 23.232 16.5933 22.9573C16.514 22.6796 16.3888 22.44 16.2179 22.2386C16.0501 22.0372 15.8365 21.88 15.5771 21.7671C15.3177 21.6542 14.9835 21.5977 14.5745 21.5977H13.7734V26.2075H14.5837C14.9621 26.2075 15.281 26.1602 15.5404 26.0656C15.7998 25.971 16.0165 25.826 16.1905 25.6307C16.3644 25.4354 16.4941 25.1913 16.5796 24.8983C16.6681 24.6022 16.7123 24.2528 16.7123 23.85ZM21.8669 21.2819C21.8669 21.3398 21.8638 21.3902 21.8576 21.4329C21.8515 21.4757 21.8408 21.5108 21.8256 21.5382C21.8103 21.5626 21.792 21.581 21.7707 21.5932C21.7524 21.6054 21.7325 21.6115 21.7112 21.6115H19.5414V23.6257H21.5922C21.6136 23.6257 21.6334 23.6318 21.6517 23.644C21.6731 23.6532 21.6914 23.67 21.7066 23.6943C21.7219 23.7188 21.7326 23.7523 21.7387 23.795C21.7448 23.8347 21.7479 23.8866 21.7479 23.9507C21.7479 24.0087 21.7448 24.059 21.7387 24.1018C21.7325 24.1414 21.7219 24.175 21.7066 24.2025C21.6914 24.2269 21.6731 24.2467 21.6517 24.262C21.6334 24.2742 21.6136 24.2803 21.5922 24.2803H19.5414V26.7477C19.5414 26.7691 19.5353 26.7904 19.523 26.8118C19.5108 26.8301 19.4895 26.8453 19.459 26.8575C19.4284 26.8668 19.3888 26.8744 19.3399 26.8804C19.2911 26.8897 19.227 26.8943 19.1477 26.8943C19.0744 26.8943 19.0119 26.8897 18.96 26.8804C18.9081 26.8743 18.8669 26.8667 18.8364 26.8575C18.8059 26.8453 18.7845 26.8301 18.7723 26.8118C18.7601 26.7904 18.754 26.769 18.754 26.7477V21.2636C18.754 21.1445 18.7845 21.0621 18.8456 21.0164C18.9097 20.9675 18.9768 20.9431 19.047 20.9431H21.7112C21.7326 20.9431 21.7524 20.9492 21.7707 20.9614C21.7921 20.9736 21.8104 20.9935 21.8257 21.0209C21.8409 21.0484 21.8516 21.085 21.8577 21.1308C21.8639 21.1735 21.8669 21.2239 21.8669 21.2819Z" fill="black"/>
</g>
</g>
<defs>
<clipPath id="clip0_285_482">
<rect width="30" height="30" fill="white"/>
</clipPath>
</defs>
</svg>
