<svg width="30" height="30" fill="none" xmlns="http://www.w3.org/2000/svg"><g clip-path="url(#a)" fill="#1E2022"><path d="M15 29.063A14.063 14.063 0 1 0 15 .936a14.063 14.063 0 0 0 0 28.125zm0-26.25a12.187 12.187 0 1 1 0 24.374 12.187 12.187 0 0 1 0-24.375z"/><path d="M21.956 15a6.956 6.956 0 0 1-11.868 4.922.937.937 0 0 0-1.322 1.322A8.824 8.824 0 0 0 21.235 8.756a.938.938 0 0 0-1.322 1.322A6.91 6.91 0 0 1 21.956 15zm-14.85.938A.938.938 0 0 0 8.044 15 6.966 6.966 0 0 1 15 8.053a.937.937 0 0 0 0-1.875A8.84 8.84 0 0 0 6.17 15a.938.938 0 0 0 .937.938z"/></g><defs><clipPath id="a"><path fill="#fff" d="M0 0h30v30H0z"/></clipPath></defs></svg>