<svg width="30" height="30" fill="none" xmlns="http://www.w3.org/2000/svg"><path fill-rule="evenodd" clip-rule="evenodd" d="M21.875 3.723c0-1.035-.84-1.875-1.875-1.875H10c-1.035 0-1.875.84-1.875 1.875v4.375c0 .345.28.625.625.625h12.5c.345 0 .625-.28.625-.625V3.723zm-1.25 0v3.75H9.375v-3.75c0-.345.28-.625.625-.625h10c.345 0 .625.28.625.625z" fill="#000"/><path fill-rule="evenodd" clip-rule="evenodd" d="M21.25 21.223H25a1.875 1.875 0 0 0 1.875-1.875v-10c0-1.035-.84-1.875-1.875-1.875H5c-1.035 0-1.875.84-1.875 1.875v10c0 1.036.84 1.875 1.875 1.875h3.75a.625.625 0 0 0 0-1.25H5a.625.625 0 0 1-.625-.625v-10c0-.345.28-.625.625-.625h20c.345 0 .625.28.625.625v10c0 .345-.28.625-.625.625h-3.75a.625.625 0 0 0 0 1.25z" fill="#000"/><path fill-rule="evenodd" clip-rule="evenodd" d="M21.875 16.223a.625.625 0 0 0-.625-.625H8.75a.625.625 0 0 0-.625.624v11.25c0 .345.28.625.625.625h12.5c.345 0 .625-.28.625-.625v-11.25zm-1.25.625v10H9.375v-10h11.25z" fill="#000"/><path fill-rule="evenodd" clip-rule="evenodd" d="M22.5 15.598h-15a.625.625 0 0 0 0 1.25h15a.625.625 0 0 0 0-1.25zm-5 3.75h-5a.625.625 0 0 0 0 1.25h5a.625.625 0 0 0 0-1.25zm0 3.75h-5a.625.625 0 0 0 0 1.25h5a.625.625 0 0 0 0-1.25zm5-11.875H20a.625.625 0 0 0 0 1.25h2.5a.625.625 0 0 0 0-1.25z" fill="#000"/></svg>