<svg width="32" height="28" fill="none" xmlns="http://www.w3.org/2000/svg"><path d="M24.002 16.488c0-1.475-1.32-2.672-2.946-2.672a3.14 3.14 0 0 0-1.43.35c.146-1.429.97-3.513 3.99-5.636.422-.299.5-.85.172-1.233a1.009 1.009 0 0 0-.766-.34c-.217 0-.426.065-.594.184-3.706 2.611-4.632 5.294-4.756 7.086-.212 2.291.584 3.496 1.312 4.125.066.061.128.128.202.182.145.108.3.205.466.288.006.003.01.009.016.01.01.005.02.007.03.01.198.097.34.142.34.142l-.01-.02c.324.124.674.19 1.028.197 1.628 0 2.946-1.197 2.946-2.673zm-9.696 0c0-1.475-1.318-2.672-2.946-2.672a3.14 3.14 0 0 0-1.43.35c.146-1.429.97-3.513 3.99-5.636.424-.299.5-.85.172-1.233a1.009 1.009 0 0 0-.766-.34c-.217 0-.427.065-.594.184-3.706 2.611-4.632 5.294-4.756 7.086-.212 2.291.586 3.496 1.312 4.125.068.061.13.128.204.182.145.108.3.205.466.288l.016.01c.01.005.02.007.03.01.198.095.34.142.34.142l-.01-.02c.324.123.674.19 1.028.197 1.626 0 2.944-1.197 2.944-2.673z" fill="#FFBE98"/></svg>