<svg width="32" height="28" fill="none" xmlns="http://www.w3.org/2000/svg"><path d="M7.998 11.455c0 1.476 1.32 2.672 2.946 2.672.522 0 1.004-.133 1.43-.349-.146 1.429-.97 3.512-3.99 5.636-.422.298-.5.85-.172 1.233.192.223.478.34.766.34.217 0 .426-.065.594-.185 3.706-2.61 4.632-5.293 4.756-7.085.212-2.292-.584-3.497-1.312-4.125-.066-.061-.128-.128-.202-.182a3.1 3.1 0 0 0-.466-.288c-.006-.004-.01-.009-.016-.01-.01-.006-.02-.008-.03-.011-.198-.096-.34-.142-.34-.142l.01.021a3.019 3.019 0 0 0-1.028-.197c-1.628 0-2.946 1.196-2.946 2.672zm9.696 0c0 1.476 1.318 2.672 2.946 2.672.522 0 1.004-.133 1.43-.349-.146 1.429-.97 3.512-3.99 5.636-.424.298-.5.85-.172 1.233.192.223.478.34.766.34.217 0 .427-.065.594-.185 3.706-2.61 4.632-5.293 4.756-7.085.212-2.292-.586-3.497-1.312-4.125-.068-.061-.13-.128-.204-.182a3.1 3.1 0 0 0-.466-.288l-.016-.01c-.01-.006-.02-.008-.03-.011-.198-.094-.34-.142-.34-.142l.01.021a3.029 3.029 0 0 0-1.028-.197c-1.626 0-2.944 1.196-2.944 2.672z" fill="#FFBE98"/></svg>