<svg xmlns="http://www.w3.org/2000/svg" viewBox="0 0 64 64"><path d="m57.3 26.8-1.7 1.4c-.4.4-.5 1-.1 1.4 0 0 0 .1.1.1.4.4.9.4 1.3.1l1.7-1.4c.4-.4.5-1 .1-1.4-.3-.5-1-.5-1.4-.2m-4.6 3.8-19 15.6c-.4.4-1.1.3-1.5-.1l-2.3-2.3c-.4-.4-1-.4-1.4 0s-.4 1 0 1.4l1.6 1.6-1.4 1.4-12.8-12.8 1.4-1.4 8.5 8.5c.4.4 1 .4 1.4 0s.4-1 0-1.4l-9.3-9.3c-.4-.4-.4-1-.1-1.4s.3-1-.1-1.4-1.1-.3-1.4.1c-.8 1-.9 2.3-.3 3.4L14.5 34l-.7-.7c-.4-.4-1-.4-1.4 0-3.5 3.5-3.5 9.2 0 12.7l5.7 5.7c3.5 3.5 9.2 3.5 12.7 0 .4-.4.4-1 0-1.4l-.8-.8 1.5-1.5c1.1.6 2.5.5 3.4-.4l19-15.6c.4-.3.5-1 .1-1.4-.2-.3-.8-.4-1.3 0M19.4 50.2l-5.7-5.7c-2.5-2.5-2.7-6.4-.7-9.1l15.5 15.5c-2.7 2-6.6 1.8-9.1-.7"/><path d="M61.7 18.9 45.1 2.3c-1-1-2.3-1.5-3.7-1.4s-2.7.7-3.5 1.8L18.8 26.1c-.6.8.1 1.4.1 1.4.4.4 1.1.3 1.4-.1L39.4 3.9c.5-.6 1.3-1 2.1-1.1.8 0 1.6.3 2.2.8l2 2-23.5 26.3c-.6.7.1 1.4.1 1.4.4.4 1 .3 1.4-.1L47.1 7.1l4.2 4.2-9.3 9.3c-.4.4-.4 1 0 1.4s1 .4 1.4 0l9.3-9.3 4.2 4.2-26.1 23.4c-.7.7-.1 1.4 0 1.5.4.4 1 .4 1.4 0l26.2-23.5 2 2c.6.6.9 1.3.8 2.2 0 .8-.4 1.6-1.1 2.1-.4.4-.5 1-.1 1.4s1 .5 1.4.1c1.1-.9 1.7-2.2 1.8-3.6 0-1.3-.5-2.7-1.5-3.6"/><path d="m27.9 37.5 12.8-12.8c.4-.4.4-1 0-1.4s-1-.4-1.4 0L26.5 36.1c-.4.4-.4 1 0 1.4s1 .4 1.4 0"/><circle cx="18.5" cy="45.3" r="1"/><circle cx="15.9" cy="42.5" r="1"/><circle cx="21.5" cy="48" r="1"/><circle cx="7.9" cy="48" r="1"/><circle cx="4" cy="52" r="1"/><circle cx="2" cy="60" r="1"/><circle cx="6" cy="56" r="1"/><circle cx="12" cy="52" r="1"/><circle cx="15.9" cy="56" r="1"/><circle cx="10" cy="58" r="1"/><circle cx="8" cy="62" r="1"/><circle cx="14" cy="62" r="1"/></svg>