<svg xmlns="http://www.w3.org/2000/svg" viewBox="0 0 509.65 512"><path d="M336.61 206.5c-28.627 0-56.334 15.178-78.02 42.737-19.712 25.052-31.48 57.487-31.48 86.763a109.5 109.5 0 0 0 219 0c0-29.276-11.77-61.71-31.482-86.763-21.685-27.56-49.393-42.737-78.019-42.737m0 224a94.607 94.607 0 0 1-94.5-94.5c0-51.861 42.152-114.5 94.5-114.5s94.5 62.639 94.5 114.5a94.607 94.607 0 0 1-94.5 94.5m134.806-229.4a325 325 0 0 1-34.991-83.277 324 324 0 0 1-7.526-37.415 93.104 93.104 0 0 0-174.048-31.755A93.152 93.152 0 0 0 80.762 80.49a321 321 0 0 1-7.407 36.929 324.5 324.5 0 0 1-35.149 83.764 272.1 272.1 0 0 0-28.433 66.473A268.2 268.2 0 0 0 0 339.29C0 434.522 77.625 512 173.04 512a173.4 173.4 0 0 0 81.835-20.518A172.23 172.23 0 0 0 336.61 512c95.414 0 173.04-77.477 173.04-172.741A270.57 270.57 0 0 0 471.416 201.1M173.04 497C85.896 497 15 426.252 15 339.29a253.2 253.2 0 0 1 9.227-67.625 257.2 257.2 0 0 1 26.867-62.809 339.5 339.5 0 0 0 36.77-87.631 336 336 0 0 0 7.753-38.652C101.027 44.05 134.316 15 173.05 15a78.17 78.17 0 0 1 73.938 52.92 94 94 0 0 0-2.655 12.568 324 324 0 0 1-7.404 36.933 324.7 324.7 0 0 1-35.154 83.76 270.2 270.2 0 0 0-38.206 138.111 172.58 172.58 0 0 0 76.126 143.01A158.56 158.56 0 0 1 173.04 497m163.57 0c-87.144 0-158.04-70.747-158.04-157.708a255.2 255.2 0 0 1 36.094-130.437 339.6 339.6 0 0 0 36.775-87.631 339 339 0 0 0 7.748-38.65C264.593 44.05 297.883 15 336.622 15s72.025 29.016 77.423 67.492a339 339 0 0 0 7.875 39.154 340 340 0 0 0 36.603 87.12 255.6 255.6 0 0 1 36.127 130.526c0 86.96-70.897 157.708-158.04 157.708"/></svg>