<svg xmlns="http://www.w3.org/2000/svg" viewBox="0 0 500 500"><path d="M116.3 279.5c0 16.2 2.9 24.8 5.5 32.3 2.4 7.2 4.5 13.4 4.5 26.7s-2.1 19.5-4.5 26.7c-2.1 6.3-4.6 13.5-5.3 25.3-.2 4.1 1.2 8.1 4 11.1s6.8 4.7 10.8 4.7H209c7.9 0 14.5-6.2 14.9-14.1.5-9.8 2.3-15.1 4.4-21.3 2.6-7.6 5.5-16.1 5.5-32.3s-2.9-24.8-5.5-32.3c-2.4-7.2-4.5-13.4-4.5-26.7s2.1-19.5 4.5-26.7c2.6-7.6 5.5-16.1 5.5-32.3s-2.9-24.8-5.5-32.3c-2.4-7.2-4.5-13.4-4.5-26.7s2.1-19.5 4.5-26.7c2.1-6.3 4.6-13.5 5.3-25.3.2-4.1-1.2-8.1-4-11.1s-6.8-4.7-10.8-4.7H141c-7.9 0-14.5 6.2-14.9 14.1-.5 9.8-2.3 15.1-4.4 21.3-2.6 7.6-5.5 16.1-5.5 32.3s2.9 24.8 5.5 32.3c2.4 7.2 4.5 13.4 4.5 26.7s-2.1 19.5-4.5 26.7c-2.5 7.5-5.4 16.1-5.4 32.3m67-91.3c-2.4-7.2-4.5-13.4-4.5-26.7s2.1-19.5 4.5-26.7c2.1-6.1 4.3-12.8 5.1-23.6h27.5c-.7 7.7-2.3 12.5-4.2 17.9-2.6 7.6-5.5 16.1-5.5 32.3s2.9 24.8 5.5 32.3c2.4 7.2 4.5 13.4 4.5 26.7s-2.1 19.5-4.5 26.7c-2.6 7.6-5.5 16.1-5.5 32.3s2.9 24.8 5.5 32.3c2.4 7.2 4.5 13.4 4.5 26.7s-2.1 19.5-4.5 26.7c-2 6-4.3 12.8-5.2 23.6h-27.4c.7-7.7 2.3-12.6 4.2-17.9 2.6-7.6 5.5-16.1 5.5-32.3s-2.9-24.8-5.5-32.3c-2.4-7.2-4.5-13.4-4.5-26.7s2.1-19.5 4.5-26.7c2.6-7.6 5.5-16.1 5.5-32.3s-3-24.8-5.5-32.3m-45 0c-2.4-7.2-4.5-13.4-4.5-26.7s2.1-19.5 4.5-26.7c2-6 4.3-12.8 5.2-23.6h27.4c-.7 7.7-2.3 12.5-4.2 17.9-2.6 7.6-5.5 16.1-5.5 32.3s2.9 24.8 5.5 32.3c2.4 7.2 4.5 13.4 4.5 26.7s-2.1 19.5-4.5 26.7c-2.6 7.6-5.5 16.1-5.5 32.3s2.9 24.8 5.5 32.3c2.4 7.2 4.5 13.4 4.5 26.7s-2.1 19.5-4.5 26.7c-2.1 6.1-4.3 12.8-5.1 23.6h-27.4c.7-7.7 2.3-12.5 4.2-17.9 2.6-7.6 5.5-16.1 5.5-32.3s-2.9-24.8-5.5-32.3c-2.4-7.2-4.5-13.4-4.5-26.7s2.1-19.5 4.5-26.7c2.6-7.6 5.5-16.1 5.5-32.3s-3.1-24.8-5.6-32.3m128 91.3c0 16.2 2.9 24.8 5.5 32.3 2.4 7.2 4.5 13.4 4.5 26.7s-2.1 19.5-4.5 26.7c-2.1 6.3-4.6 13.5-5.3 25.3-.2 4.1 1.2 8.1 4 11.1s6.8 4.7 10.8 4.7H359c7.9 0 14.5-6.2 14.9-14.1.5-9.8 2.3-15.1 4.4-21.3 2.6-7.6 5.5-16.1 5.5-32.3s-2.9-24.8-5.5-32.3c-2.4-7.2-4.5-13.4-4.5-26.7s2.1-19.5 4.5-26.7c2.6-7.6 5.5-16.1 5.5-32.3s-2.9-24.8-5.5-32.3c-2.4-7.2-4.5-13.4-4.5-26.7s2.1-19.5 4.5-26.7c2.1-6.3 4.6-13.5 5.3-25.3.2-4.1-1.2-8.1-4-11.1s-6.8-4.7-10.8-4.7H291c-7.9 0-14.5 6.2-14.9 14.1-.5 9.8-2.3 15.1-4.4 21.3-2.6 7.6-5.5 16.1-5.5 32.3s2.9 24.8 5.5 32.3c2.4 7.2 4.5 13.4 4.5 26.7s-2.1 19.5-4.5 26.7c-2.5 7.5-5.4 16.1-5.4 32.3m67-91.3c-2.4-7.2-4.5-13.4-4.5-26.7s2.1-19.5 4.5-26.7c2.1-6.1 4.3-12.8 5.1-23.6h27.5c-.7 7.7-2.3 12.5-4.2 17.9-2.6 7.6-5.5 16.1-5.5 32.3s2.9 24.8 5.5 32.3c2.4 7.2 4.5 13.4 4.5 26.7s-2.1 19.5-4.5 26.7c-2.6 7.6-5.5 16.1-5.5 32.3s2.9 24.8 5.5 32.3c2.4 7.2 4.5 13.4 4.5 26.7s-2.1 19.5-4.5 26.7c-2 6-4.3 12.8-5.2 23.6h-27.4c.7-7.7 2.3-12.6 4.2-17.9 2.6-7.6 5.5-16.1 5.5-32.3s-2.9-24.8-5.5-32.3c-2.4-7.2-4.5-13.4-4.5-26.7s2.1-19.5 4.5-26.7c2.6-7.6 5.5-16.1 5.5-32.3s-3-24.8-5.5-32.3m-45 0c-2.4-7.2-4.5-13.4-4.5-26.7s2.1-19.5 4.5-26.7c2-6 4.3-12.8 5.2-23.6h27.4c-.7 7.7-2.3 12.5-4.2 17.9-2.6 7.6-5.5 16.1-5.5 32.3s2.9 24.8 5.5 32.3c2.4 7.2 4.5 13.4 4.5 26.7s-2.1 19.5-4.5 26.7c-2.6 7.6-5.5 16.1-5.5 32.3s2.9 24.8 5.5 32.3c2.4 7.2 4.5 13.4 4.5 26.7s-2.1 19.5-4.5 26.7c-2.1 6.1-4.3 12.8-5.1 23.6h-27.4c.7-7.7 2.3-12.5 4.2-17.9 2.6-7.6 5.5-16.1 5.5-32.3s-2.9-24.8-5.5-32.3c-2.4-7.2-4.5-13.4-4.5-26.7s2.1-19.5 4.5-26.7c2.6-7.6 5.5-16.1 5.5-32.3s-3.1-24.8-5.6-32.3"/></svg>