<svg xmlns="http://www.w3.org/2000/svg" width="512" height="512"><path d="m221.72 480.742 11.53-.408c4.214-.433 7.668-1.416 11.182-3.766.274-2.394.119-4.925.119-7.337l-.007-22.746c.005-1.884.614-5.021-.512-6.647l-16.898-24.895c-1.081-1.725-1.904-1.648-3.662-1.593l-4.885.133c-32.941.686-58.979-9.573-85.408-29.588-30.847-23.36-52.517-55.945-66.358-91.894l-7.775-23.425c-5.61-18.5-1.68-20.578 15.17-18.113 44.749 6.546 93.805 28.435 130.524 55.45 25.411 18.695 37.563 36.982 37.549 68.376-.004 9.869-1.338 19.95-4.563 29.307 1.195 1.852 6.266 8.736 6.752 10.104l-.046-29.856c-.121-2.432-.714-4.769-.848-7.204l-.308-12.677c-.133-2.003-.709-3.932-.832-5.94l-.755-30.533-5.234-55.529c-.091-2.363.073-4.428-1.126-6.555l-12.442-25.088c-11.659-27.104-19.338-59.206-16.827-88.582 7.767-90.878 87.315-136.462 172.485-138.214l14.352-.048c10.072.017 14.912.565 13.248 13.151l-10.539 66.169c-4.571 22.351-11.114 45.45-21.386 65.956-22.618 45.154-65.955 81.797-110.159 104.969l-8.333 4.09c-1.36.606-3.059 1.001-4.286 1.811l7.093 92.372c.448-1.256 1.075-1.74 1.692-2.814l2.994-5.821c2.975-5.346 6.464-10.059 10.737-14.406 1.598-1.627 1.492-1.256 1.542-3.51l.384-7.343c3.593-37.21 25.705-74.532 57.53-94.263 24.441-15.152 51.184-20.169 79.431-20.132l12.6.31c9.144.529 18.316 3.207 12.01 14.613l-8.163 15.56-16.972 38.38c-25.019 51.497-71.014 72.725-127.745 66.763-4.683 3.154-18.233 30.631-20.821 36.216l-2.655 6.347c-1.149 2.465-1.132 5.949-1.162 8.62l-.011 68.869c.004 2.477.189 5.139-.178 7.591-2.624 17.555-20.875 19.429-35.488 19.488-6.138.025-14.769.274-15.21-8.085-.423-7.986 7.265-7.82 12.67-7.633M382.086 29.231c-44.155-.192-93.397 13.968-125.212 45.517-40.027 39.69-43.063 95.791-24.733 146.026 2.468 6.766 5.106 13.412 8.493 19.779l4.259-15.921c4.06-13.216 9.109-26.053 14.486-38.778l11.274-24.942 11.772-20.802c5.341-8.817 10.923-17.474 17.149-25.698l7.859-9.917c1.888-2.284 3.757-4.705 6.089-6.557l.289-.179c6.002-3.628 13.704 2.437 11.84 8.961-.663 2.322-3.99 5.198-5.599 7.026l-6.018 7.194c-26.739 33.945-50.516 87.102-60.442 130.1 3.524-1.376 6.883-3.269 10.183-5.113l15.734-9.532c66.293-42.884 92.467-89.596 104.556-165.14l6.491-41.902c-2.078-.752-6.108-.296-8.381-.227zm21.426 199.834c-55.3 1.45-96.067 33.601-109.527 86.643l21.797-21.274c10.238-9.27 21.289-17.651 32.343-25.917 4.018-3.005 8.17-6.662 12.575-9.061 9.83-5.352 16.395 6.174 8.724 12.568l-8.646 6.53c-18.933 14.482-37.366 28.947-53.914 46.192-3.619 3.772-5.981 6.868-9.215 10.518 30.775.107 56.523-6.338 79.497-29.048 16.667-16.476 24.666-37.859 33.734-58.913l4.653-10.32c1.217-2.539 2.34-5.468 3.972-7.754zM74.525 265.899C92.38 329.418 143.1 396.818 214.63 398.128l-.262-.149c-1.72-1.013-3.91-3.86-5.51-5.298l-72.293-59.616c-4.982-4.49-7.899-9.995-1.364-15.013l.3-.158c3.85-1.973 6.566-.748 9.717 1.724l73.697 60.334c2.656 2.284 5.506 4.839 7.54 7.694 5.139-36.819-8.322-53.685-36.618-73.224-30.917-21.348-66.992-38.171-103.618-46.38z"/></svg>