<svg xmlns="http://www.w3.org/2000/svg" viewBox="0 0 512 512"><path d="m496.91 234.45-41.36-17.65 32.38-33.08a7.63 7.63 0 0 0-.08-10.81A7.72 7.72 0 0 0 477 173l-30.08 30.7c-.46-1.92-.85-3.84-1.46-5.68l-.61-1.84C427.31 141.06 369 108.37 312 121.8a1269 1269 0 0 1-178.8 28.32c-.07 0-.15.07-.3.07-12.2.92-24.33 9.52-35.07 24.71-5.91-5.06-12.58-7.83-19.64-7.83-34.3 0-62.31 59.47-66.92 115.11-3.53 42.35 4.91 80.26 22.1 98.91 7.29 8 16 12.12 25.33 12.12 13.42 0 26.32-9 37.06-24.17a32.34 32.34 0 0 0 20 7.21c.23 0 .46-.07.69-.07l14.12-.47c80.88-5.83 159.61-17.72 234.12-35.29a112 112 0 0 0 71.59-53.72 109.2 109.2 0 0 0 14.5-55.32l40.14 17.19a6.94 6.94 0 0 0 3 .61 7.68 7.68 0 0 0 3.07-14.73ZM58.68 377.86c-4.92 0-9.67-2.38-14-7.21-14.17-15.35-21.3-49.57-18.16-87.25 4.76-56.86 31.62-101 51.65-101 4.14 0 8 2 11.81 6.06 13.89 15.12 21.26 53.64 18 93.7-4.72 56.42-29.74 95.7-49.3 95.7m106.2-112.8c-4.61 55.79-29.09 94.85-48.58 95.69l-.92.08c-4.06-.08-8-1.77-11.66-5.07 10-19.18 17.19-44.35 19.49-72.36 3.3-39-2.69-75-15.19-96.07 8.59-13.5 18.26-21.48 26.47-21.94a2 2 0 0 0 .69-.08c4.14.08 8 2.07 11.74 6.14 13.89 15.04 21.26 53.55 17.96 93.61m230.89-47.8a8 8 0 0 1-2.3.38 7.82 7.82 0 0 1-7.37-5.37c-11.28-35.68-45.27-36.07-45.58-36.07a7.67 7.67 0 1 1 0-15.34c15.73 0 48.5 9.74 60.24 46.73a7.73 7.73 0 0 1-4.99 9.67"/><path d="M81.57 239.56V235a7.68 7.68 0 1 0-15.35 0v4.56a7.68 7.68 0 0 0 15.35 0m2.23 30.62a7.67 7.67 0 0 0-7.68 7.67v4.57a7.68 7.68 0 0 0 15.35 0v-4.57a7.66 7.66 0 0 0-7.67-7.67m-25.12 39.71a7.66 7.66 0 0 0-7.68 7.67v4.57a7.67 7.67 0 1 0 15.34 0v-4.57a7.66 7.66 0 0 0-7.66-7.67m-1.54-37.42v-4.57a7.68 7.68 0 0 0-15.35 0v4.57a7.68 7.68 0 0 0 15.35 0"/></svg>