<svg xmlns="http://www.w3.org/2000/svg" width="512" height="512"><path d="M75.577 150.361q-.677 0-1.367-.135a7 7 0 0 1-5.507-8.227c4.726-23.858 13.33-56.322 27.485-75.497 25.276-34.254 64.22-42.817 89.626-33.571 15.716 5.71 31.959-.18 47.667-5.875 4.125-1.496 8.022-2.909 11.907-4.113 8.381-2.618 20.614-1.101 34.779.657 17.39 2.158 37.098 4.604 51.019-.537 20.286-7.481 30.888 7.735 40.241 21.161 6.848 9.829 13.929 19.992 25.15 25.221 19.295 8.981 28.649 31.183 34.008 47.102a7 7 0 0 1-13.269 4.466c-7.207-21.415-15.676-33.769-26.649-38.876-14.642-6.823-23.561-19.624-30.727-29.909-10.203-14.645-14.602-19.46-23.906-16.03-17.116 6.319-38.618 3.65-57.591 1.296-12.028-1.493-23.391-2.903-28.894-1.183-3.585 1.111-7.33 2.469-11.295 3.907-17.215 6.243-36.726 13.319-57.224 5.871-20.523-7.466-52.382.002-73.578 28.728-12.618 17.093-20.568 47.448-25.016 69.903a7 7 0 0 1-6.859 5.641"/><path d="M84.234 157.611a7 7 0 0 1-5.871-10.804C118.035 85.482 185.275 48.87 258.23 48.87c61.602 0 120.259 26.572 160.931 72.902a7 7 0 0 1-.643 9.879 7 7 0 0 1-9.879-.643C370.626 87.706 315.804 62.87 258.23 62.87c-68.186 0-131.032 34.221-168.113 91.542a6.99 6.99 0 0 1-5.883 3.199"/><path d="M281.602 291.611a7 7 0 0 1-6.945-6.2c-9.203-79.971-27.053-136.709-53.055-168.641a7 7 0 1 1 10.856-8.84c27.716 34.038 46.593 93.212 56.106 175.879a7 7 0 0 1-6.962 7.802"/><path d="M250.208 158.742a7 7 0 0 1-5.643-11.135c1.11-1.516 27.697-37.19 72.487-42.217 3.828-.427 7.305 2.334 7.736 6.176a7 7 0 0 1-6.176 7.737c-38.75 4.349-62.515 36.252-62.75 36.574a6.99 6.99 0 0 1-5.654 2.865m17.771 54.12a7 7 0 0 1-5.424-11.42c1.246-1.531 31.188-37.432 88.798-32.94a7 7 0 0 1 6.435 7.523c-.301 3.854-3.688 6.722-7.522 6.435-50.391-3.928-76.595 27.504-76.854 27.822a7 7 0 0 1-5.433 2.58m-40.94 34.681a7 7 0 0 1-3.151-13.255c20.016-10.069 49.608-7.314 50.857-7.192a7 7 0 0 1 6.285 7.648c-.376 3.846-3.81 6.656-7.643 6.286-.269-.025-26.838-2.47-43.208 5.765a6.96 6.96 0 0 1-3.14.748"/><path d="M183.867 173.161a7.001 7.001 0 0 1-2.807-13.416c22.953-10.034 70.844-1.476 76.229-.466a7 7 0 0 1-2.576 13.761c-13.466-2.518-51.938-7.507-68.045-.466a7 7 0 0 1-2.801.587m199.959 278.54a7 7 0 0 1-3.99-12.757c57.791-39.99 92.293-105.778 92.293-175.984 0-18.506-2.836-29.121-7.533-46.708-2.445-9.156-5.489-20.551-8.748-35.624-4.532-20.965-3.825-42.492-3.257-59.789.319-9.717.71-21.61-.67-25.644-2.031.426-3.349 2.297-6.55 8.51-3.331 6.466-7.478 14.513-16.64 20.309-11.071 7.01-24.272 18.659-24.272 34.334 0 4.209.254 9.012.522 14.096.911 17.256 2.046 38.731-5.73 57.339-9.257 22.151-29.447 35.643-60.011 40.101-47.114 6.867-62.997 26.408-75.228 45.833a7 7 0 0 1-11.847-7.459c13.359-21.218 32.051-44.501 85.055-52.228 25.718-3.751 41.783-14.103 49.113-31.646 6.545-15.662 5.548-34.543 4.668-51.203-.279-5.274-.542-10.256-.542-14.834 0-17.449 10.646-33.412 30.785-46.164 5.948-3.763 8.863-9.42 11.682-14.892 3.72-7.219 8.35-16.205 20.173-16.205 3.329 0 6.288 1.239 8.556 3.582 5.931 6.129 5.532 18.262 4.929 36.627-.543 16.527-1.219 37.096 2.948 56.372 3.188 14.743 6.058 25.488 8.59 34.969 4.822 18.051 8.008 29.977 8.008 50.32 0 74.801-36.758 144.893-98.326 187.496a6.95 6.95 0 0 1-3.978 1.249"/><path d="M347.24 395.23a6.999 6.999 0 0 1-4.941-11.958c47.962-47.805 75.902-91.066 83.044-128.582a7 7 0 0 1 13.754 2.619c-7.679 40.332-36.921 86.049-86.915 135.879a6.98 6.98 0 0 1-4.942 2.042"/><path d="M400.676 332.327a6.97 6.97 0 0 1-3.714-1.071c-2.588-1.624-15.247-11.486-10.267-46.268a7 7 0 0 1 7.922-5.938 7 7 0 0 1 5.938 7.922c-3.649 25.483 3.771 32.375 3.849 32.424a7 7 0 0 1-3.728 12.931m-30.105 38.496c-.627 0-1.118-.034-1.46-.099-2.487-.472-4.592-2.279-5.397-4.68a7.04 7.04 0 0 1 1.454-6.943 7 7 0 0 1 5.999-2.254c7.751-.416 47.153-7.852 70.807-36.022a7 7 0 0 1 10.722 9.002c-27.049 32.215-72.077 40.996-82.125 40.996"/><path d="M258.229 490.865c-60.874 0-118.104-23.707-161.151-66.753-43.046-43.046-66.752-100.277-66.752-161.15 0-13.909 1.264-27.811 3.758-41.325q.01-.09.024-.178c1.73-11.672-1.092-24.286-4.665-40.255a899 899 0 0 1-2.335-10.638c-4.432-20.949 3.377-35.59 21.989-41.225a7 7 0 0 1 .622-.158c9.058-1.855 18.054.349 27.676 6.881 6.966 4.727 13.668 11.236 20.763 18.127 14.77 14.346 31.51 30.606 55.112 34.689a7 7 0 0 1 1.4.396c21.146 8.434 34.525 17.011 42.103 26.994 7.266 9.571 8.356 19.1 9.411 28.315 1.539 13.44 3.129 27.339 25.063 46.14 11.382 9.756 21.461 14.499 30.812 14.499h.003c8.624-.001 15.991-4.042 23.115-7.95 6.74-3.698 13.71-7.521 21.454-7.521 8.356 0 15.948 4.397 23.209 13.442q.375.467.665.99c10.537 19.027 11.957 33.397 13.209 46.077 2.15 21.763 4.007 40.558 54.334 81.807q.358.293.673.631a7.02 7.02 0 0 1 1.875 5.342 7 7 0 0 1-2.675 4.983c-40.258 31.297-88.564 47.84-139.692 47.84M47.982 223.333q-.03.295-.083.585c-2.372 12.759-3.574 25.896-3.574 39.043 0 117.946 95.957 213.903 213.903 213.903 45.064 0 87.79-13.691 124.114-39.682-48.173-41.164-50.309-62.752-52.561-85.546-1.215-12.297-2.362-23.918-11.231-40.137-5.698-6.934-9.523-7.749-11.92-7.749-4.156 0-9.052 2.686-14.721 5.796-7.857 4.31-17.636 9.674-29.847 9.676h-.005c-12.836 0-25.894-5.845-39.923-17.87-26.106-22.377-28.188-40.563-29.86-55.176-1.857-16.231-3.2-27.982-42.133-43.633-27.464-5.021-46.455-23.464-61.739-38.31-6.643-6.452-12.917-12.546-18.871-16.586-6.359-4.317-11.43-5.794-16.702-4.809-8.072 2.511-15.69 7.512-12.026 24.829a911 911 0 0 0 2.3 10.479c3.722 16.63 6.938 31 4.879 45.187"/><path d="M300.373 486.846a6.96 6.96 0 0 1-4.442-1.594c-7.874-6.476-192.95-159.488-203.505-236.546a7 7 0 0 1 5.985-7.885c3.83-.53 7.36 2.155 7.885 5.985 4.003 29.224 39.402 77.717 102.37 140.239 48.176 47.835 95.685 87.006 96.158 87.396a7 7 0 0 1-4.451 12.405"/><path d="M130.577 316.708a7.002 7.002 0 0 1-6.068-10.482c.208-.361 20.76-36.431 24.625-59.622a7.001 7.001 0 0 1 13.81 2.302c-4.279 25.678-25.391 62.718-26.288 64.282a7 7 0 0 1-6.079 3.52m69.292 78.448a7 7 0 0 1-6.581-9.386c3.742-10.333 13.365-40.236 12.963-54.343a7 7 0 0 1 6.797-7.196 6.99 6.99 0 0 1 7.197 6.798c.561 19.654-13.208 57.892-13.794 59.51a7.01 7.01 0 0 1-6.582 4.617m-39.78-41.099c-7.385 0-49.556-.727-77.599-16.75a7 7 0 0 1 6.947-12.156c26.883 15.362 71.07 14.896 71.509 14.901l.103-.001a7 7 0 0 1 .1 13.999c-.14.002-.5.007-1.06.007m55.491 71.382c-21.453 0-59.455-1.41-78.02-10.656a7 7 0 0 1-3.146-9.386 6.995 6.995 0 0 1 9.387-3.146c19.05 9.487 69.081 9.666 86.75 8.932 3.859-.165 7.124 2.842 7.284 6.704a7 7 0 0 1-6.704 7.284c-.795.034-6.795.268-15.551.268m34.962 17.951a6.97 6.97 0 0 1-3.87-1.173 7 7 0 0 1-1.953-9.703c.309-.465 30.837-46.826 28.014-76.931a7 7 0 0 1 13.939-1.307c3.285 35.04-28.922 83.925-30.294 85.989a7 7 0 0 1-5.836 3.125"/></svg>