<svg xmlns="http://www.w3.org/2000/svg" viewBox="0 0 422.407 422.407"><path d="m295.608 101.78 22.382-3.946c.276-.049.541-.132.801-.224l88.11-15.535c4.232.223 8.287-1.385 11.188-4.493 3.474-3.72 4.984-9.132 4.042-14.479-1.542-8.751-9.546-15.6-19.464-16.656a5 5 0 0 0-1.397.048l-99.139 17.481-144.143 25.417c-7.747 1.366-12.939 8.78-11.573 16.529.055.314.126.625.19.938H135.96c-19.547 0-35.449 15.902-35.449 35.449 0 5.688 1.384 11.28 3.968 16.283H91.888c-7.844 0-14.225 6.381-14.225 14.224v1.739c0 7.843 6.381 14.224 14.225 14.224h8.003l21.907 82.536-38.366-5.37c.053-.649.087-1.304.087-1.966 0-13.201-10.74-23.941-23.941-23.941-11.607 0-21.308 8.303-23.483 19.281l-30.402-4.255A5.003 5.003 0 0 0 0 260.015v110.973a5 5 0 0 0 5 5h186.723a5 5 0 0 0 5-5v-34.129H347.9a5 5 0 0 0 4.833-3.717l5.136-19.349 28.956-109.096.001-.003 4.224-15.914h8.004c7.843 0 14.224-6.381 14.224-14.224v-1.739c0-7.843-6.381-14.224-14.224-14.224H382.8c-5.645-12.964-18.243-21.283-32.477-21.283H196.821a36 36 0 0 0 2.394-2.56l83.635-14.747a12.78 12.78 0 0 0 8.304-5.291 12.77 12.77 0 0 0 2.131-9.612 2.87 2.87 0 0 1 2.323-3.32m53.581 205.729H196.723v-21.358a5 5 0 0 0-4.307-4.952l-59.872-8.38-17.095-64.406h260.042zM112.794 198.413l-2.555-9.626H380.7l-2.555 9.626zm-53.216 51.625c7.688 0 13.941 6.254 13.941 13.941s-6.254 13.941-13.941 13.941-13.941-6.254-13.941-13.941 6.254-13.941 13.941-13.941M10 265.764l26.273 3.677c2.479 10.577 11.984 18.479 23.305 18.479 8.974 0 16.806-4.966 20.905-12.291l106.24 14.871v55.3H10zm176.723 100.224H10V355.8h176.723zm10-39.13v-9.35h149.813l-2.482 9.35zM402.255 56.476c4.473.696 9.206 3.696 10.029 8.363.394 2.235-.183 4.502-1.504 5.917-.955 1.022-2.161 1.462-3.596 1.312a5 5 0 0 0-1.396.048l-84.625 14.921-2.781-15.773zm1.021 116.339v1.739a4.23 4.23 0 0 1-4.224 4.224H91.888a4.23 4.23 0 0 1-4.225-4.224v-1.739a4.23 4.23 0 0 1 4.225-4.224h307.165a4.23 4.23 0 0 1 4.223 4.224m-52.953-25.507c8.671 0 16.498 4.299 21.15 11.283H116.058l.204-.167a25.5 25.5 0 0 1-5.752-16.116c0-14.033 11.416-25.449 25.449-25.449h61.163c-2.33 11.646-12.635 20.449-24.956 20.449a5 5 0 1 0 0 10zm-66.886-40.472a2.84 2.84 0 0 1-.475 2.14 2.85 2.85 0 0 1-1.849 1.178l-75.458 13.305a35.3 35.3 0 0 0 1.961-11.599 5 5 0 0 0-5-5h-45.743a28 28 0 0 1-.61-2.675 4.273 4.273 0 0 1 3.462-4.944l148.81-26.239 2.782 15.772-4.667.823.014.081-12.792 2.255c-6.985 1.232-11.667 7.917-10.435 14.903"/><path d="M245.47 299.515c31.478 0 57.086-18.703 57.086-41.692s-25.608-41.692-57.086-41.692-57.086 18.703-57.086 41.692 25.608 41.692 57.086 41.692m0-73.384c25.963 0 47.086 14.217 47.086 31.692s-21.123 31.692-47.086 31.692-47.086-14.217-47.086-31.692 21.123-31.692 47.086-31.692"/></svg>