<svg xmlns="http://www.w3.org/2000/svg" viewBox="0 0 64 64"><path d="M54.9 16.9C58.7 20.8 61 26.2 61 32c0 .6.4 1 1 1s1-.4 1-1C63 18.9 52.3 8.1 39.1 8.1H14c-1.8 0-3.5 1-4.3 2.7-.2.5 0 1.1.5 1.3s1.1 0 1.3-.5c.5-1 1.4-1.5 2.5-1.5h18.1c.6 1.6.9 3.3.9 5 0 .8-.1 1.6-.2 2.3-.1.5.3 1.1.8 1.1s1.1-.3 1.1-.8c.1-.9.2-1.8.2-2.6 0-1.7-.3-3.4-.8-5h4.8c5.3 0 10.1 1.9 13.9 5 0 5.1-2.7 9.9-7 12.6-2.1-2.2-5-3.6-8.2-3.6h-5.4c.3-.5.6-1.1.9-1.6.2-.5 0-1.1-.5-1.3s-1.1 0-1.3.5c-.4.9-1 1.7-1.6 2.5h-2.1c-5.8 0-11.3-2.8-14.7-7.4-.3-.4-1-.5-1.4-.2s-.5 1-.2 1.4c3.8 5.2 9.9 8.3 16.3 8.3h9.9c5.1 0 9.2 4.1 9.2 9.2 0 4.1-2.8 7.8-6.8 8.9-.5.1-.8.7-.7 1.2.2.9 1.1.7 1.2.7 3.1-.9 5.7-3 7.1-5.8 2.7 2.2 6.1 3.5 9.6 3.7-3.6 5.8-10.2 9.6-17.4 9.8-1.9-1.8-3.3-4-4-6.5.4-.1.9-.2 1.3-.3.5-.1.8-.7.7-1.2s-.7-.8-1.2-.7c-5.5 1.5-14.1 2.2-21.6-3.4-1.3-1-3-1.5-4.6-1.3-1.7.2-3.1 1.2-4.1 2.6-.8 1.3-.5 3 .7 3.9l3.7 2.8c.4.3 1.1 2.3 0 2.8l-3.7 2.8c-1.2.9-1.5 2.6-.6 3.8.9 1.4 2.4 2.3 4.1 2.6.3.1 2.8.3 4.7-1.2.4-.3.5-1 .2-1.4s-1-.5-1.4-.2c-.9.7-2 1-3.2.8-3.3-.6-3.1-2.7-2.7-2.9l3.7-2.8c2.5-2.3.9-5.2 0-6L8 45.4c-.4-.3-.9-2.2 2.5-2.9 1.1-.2 2.2.1 3 .9 2.3 2.1 5.8 3.2 6 3.3-.8 2.8-.8 5.9 0 8.7-.7.3-1.5.6-2.2 1.1-.5.3-.6.9-.4 1.4.3.6 1.2.5 1.4.4 5.5-3 12.1-3.3 16.8-2.5 12.9 2.1 25.2-6.6 27.5-19.4.1-.5-.3-1.1-.8-1.2s-1.1.3-1.2.8c-.4 2.2-1.1 4.3-2.1 6.2-3.7 0-7.3-1.4-10-3.8.3-1 .4-2 .4-3 0-2.2-.6-4.2-1.7-6 4.4-2.8 7.2-7.4 7.7-12.5M21.4 54.7c-.6-2.4-.6-5 .1-7.5 4 1 8.1 1.2 12.2.6.6 2.2 1.7 4.3 3.2 6-.5 0-5.3-1.3-15.5.9"/><path d="M6.7 14.8c.7.4 3.6 1.3 7.7-.8.5-.3.7-.8.4-1.3-.2-.5-.8-.7-1.3-.4-1.5.7-4.4 1.6-5.7.8-.2-.1-.8-.5-.8-2 0-3.7-.8-6.4-2.4-7.9-1.2-1.1-2.5-1.1-2.7-1.1-.5.1-.9.5-.9 1.1s.5 1 1.1.9c0 0 2.9.5 2.9 7 0 2.2.9 3.2 1.7 3.7M8 4.1s1.5 0 2.3 2.3c.1.4.7.8 1.3.6.5-.2.8-.8.6-1.3C10.8 2 8.1 2.1 7.9 2.1c-.5.1-.9.5-.9 1.1 0 .5.5.9 1 .9m41.4 14.3c.2.1.9.6 1.4-.2.3-.4.3-1.1-.2-1.4-2.5-1.9-5.4-3.4-8.4-4.1-.5-.1-1.1.2-1.2.7s.2 1.1.7 1.2c2.8.8 5.4 2 7.7 3.8M38 14.1c.5 0 1-.4 1-1s-.4-1-1-1h-1c-.6 0-1 .4-1 1s.4 1 1 1z"/></svg>