<svg xmlns="http://www.w3.org/2000/svg" width="288" height="288"><svg xmlns="http://www.w3.org/2000/svg" width="288" height="288" viewBox="0 0 500 500"><path fill="rgba(255, 255, 255, 0)" d="M309.2 313.2c-6.4 0-10.8 3.7-10.8 7s4.4 7 10.8 7 10.8-3.7 10.8-7-4.4-7-10.8-7" class="colorf9d294 svgShape"/><path fill="rgba(255, 255, 255, 0)" d="M159.7 376.7h180.6c28 0 50.8-22.8 50.8-50.8V174.2c0-28-22.8-50.8-50.8-50.8H159.7c-28 0-50.8 22.8-50.8 50.8v151.7c0 28 22.8 50.8 50.8 50.8M309.2 341c-13.6 0-24.6-9.3-24.6-20.8s11-20.8 24.6-20.8 24.6 9.3 24.6 20.8c.1 11.4-11 20.8-24.6 20.8m-11.8-167.1c32.6 0 59.2 21.5 59.2 47.9s-26.6 47.9-59.2 47.9-59.2-21.5-59.2-47.9 26.6-47.9 59.2-47.9M252 305c0 16.9-16.7 30.7-37.3 30.7s-37.3-13.8-37.3-30.7 16.7-30.7 37.3-30.7S252 288.1 252 305m-72.9-127.6c17 0 30.8 11.5 30.8 25.6s-13.8 25.6-30.8 25.6-30.8-11.5-30.8-25.6 13.8-25.6 30.8-25.6" class="colorf5b847 svgShape"/><ellipse cx="297.4" cy="221.7" fill="rgba(255, 255, 255, 0)" class="colorf9d294 svgShape" rx="45.4" ry="34.1"/><path fill="rgba(255, 255, 255, 0)" d="M179.1 214.8c9.2 0 17-5.4 17-11.8s-7.8-11.8-17-11.8-17 5.4-17 11.8 7.8 11.8 17 11.8m35.6 107.1c12.7 0 23.5-7.7 23.5-16.9s-10.8-16.9-23.5-16.9-23.5 7.7-23.5 16.9 10.8 16.9 23.5 16.9" class="colorf9d294 svgShape"/><path fill="#1e2022" d="M159.7 390.5h180.6c35.6 0 64.6-29 64.6-64.6V174.2c0-35.6-29-64.6-64.6-64.6H159.7c-35.6 0-64.6 29-64.6 64.6v151.7c0 35.6 29 64.6 64.6 64.6m-50.8-216.3c0-28 22.8-50.8 50.8-50.8h180.6c28 0 50.8 22.8 50.8 50.8v151.7c0 28-22.8 50.8-50.8 50.8H159.7c-28 0-50.8-22.8-50.8-50.8z" class="color592f00 svgShape"/><path fill="#1e2022" d="M297.4 269.6c32.6 0 59.2-21.5 59.2-47.9s-26.6-47.9-59.2-47.9-59.2 21.5-59.2 47.9 26.6 47.9 59.2 47.9m0-81.9c25 0 45.4 15.3 45.4 34.1s-20.4 34.1-45.4 34.1-45.4-15.4-45.4-34.2c0-18.7 20.4-34 45.4-34M177.4 305c0 16.9 16.7 30.7 37.3 30.7S252 321.9 252 305s-16.7-30.7-37.3-30.7c-20.5 0-37.3 13.8-37.3 30.7m37.3-16.9c12.7 0 23.5 7.7 23.5 16.9s-10.8 16.9-23.5 16.9-23.5-7.7-23.5-16.9c0-9.1 10.8-16.9 23.5-16.9m94.5 11.3c-13.6 0-24.6 9.3-24.6 20.8s11 20.8 24.6 20.8 24.6-9.3 24.6-20.8c.1-11.5-11-20.8-24.6-20.8m0 27.7c-6.4 0-10.8-3.7-10.8-7s4.4-7 10.8-7 10.8 3.7 10.8 7-4.4 7-10.8 7m-130.1-98.4c17 0 30.8-11.5 30.8-25.6s-13.8-25.6-30.8-25.6-30.8 11.5-30.8 25.6 13.8 25.6 30.8 25.6m0-37.5c9.2 0 17 5.4 17 11.8s-7.8 11.8-17 11.8-17-5.4-17-11.8 7.8-11.8 17-11.8" class="color592f00 svgShape"/></svg></svg>