<svg xmlns="http://www.w3.org/2000/svg" viewBox="0 0 256 256"><path fill="none" d="M0 0h256v256H0z"/><path fill="none" stroke="#000" stroke-linecap="round" stroke-linejoin="round" stroke-width="12" d="M224 177.321V78.68a8 8 0 0 0-4.078-6.973l-88-49.5a8 8 0 0 0-7.844 0l-88 49.5A8 8 0 0 0 32 78.68v98.642a8 8 0 0 0 4.078 6.973l88 49.5a8 8 0 0 0 7.844 0l88-49.5A8 8 0 0 0 224 177.32"/><path fill="none" stroke="#000" stroke-linecap="round" stroke-linejoin="round" stroke-width="12" d="M222.897 74.626 128.949 128 33.108 74.617M128.949 128l-.939 106.821"/></svg>