<svg xmlns="http://www.w3.org/2000/svg" viewBox="0 0 341.463 341.463"><path d="M127.261 119.94c-29.808 0-54.059 24.251-54.059 54.06s24.251 54.06 54.059 54.06c29.809 0 54.06-24.251 54.06-54.06s-24.251-54.06-54.06-54.06m0 98.12c-24.294 0-44.059-19.765-44.059-44.06s19.765-44.06 44.059-44.06c24.295 0 44.06 19.765 44.06 44.06s-19.765 44.06-44.06 44.06"/><path d="M336.463 144.532a5 5 0 0 0 5-5V37.518a5 5 0 0 0-5-5h-27.518V5a5 5 0 0 0-5-5H170.031a4.998 4.998 0 0 0-4.946 5.729c.211 1.434.318 2.889.318 4.324 0 8.751-3.771 16.848-10.398 22.464h-38.139c-6.628-5.617-10.398-13.714-10.398-22.464 0-1.429.107-2.885.319-4.327A4.998 4.998 0 0 0 101.84 0H5a5 5 0 0 0-5 5v173.736a5 5 0 0 0 4.846 4.998c11.161.344 21.504 6.125 27.67 15.465l.002-.001v37.804c-6.17 9.378-16.409 15.151-27.672 15.497A5 5 0 0 0 0 257.496v46.449a5 5 0 0 0 5 5h27.518v27.518a5 5 0 0 0 5 5h55.465a5 5 0 0 0 4.973-5.517 30 30 0 0 1-.163-3.097c0-16.249 13.219-29.468 29.468-29.468s29.468 13.219 29.468 29.468c0 1.021-.055 2.062-.163 3.095a5 5 0 0 0 4.973 5.519h174.923a5 5 0 0 0 5-5V208.468a5 5 0 0 0-5-5c-16.249 0-29.468-13.219-29.468-29.468s13.22-29.468 29.469-29.468M175.403 10.053V10h123.542v22.518H168.4c4.52-6.504 7.003-14.266 7.003-22.465M10 174.156V10h86.468v.053c0 8.199 2.483 15.961 7.004 22.464H37.518a5 5 0 0 0-5 5v146.781C26.151 178.895 18.35 175.34 10 174.156m0 124.789v-36.864a44.17 44.17 0 0 0 22.518-10.114v46.978zM296.995 174c0 20.069 15.058 36.688 34.468 39.153v118.31H166.705c-.732-21.124-18.145-38.082-39.444-38.082s-38.711 16.958-39.444 38.082H42.518V42.518h288.945v92.33c-19.41 2.464-34.468 19.083-34.468 39.152"/><path d="M253.032 70.881c-17.44 0-31.629 14.188-31.629 31.629s14.188 31.629 31.629 31.629 31.629-14.188 31.629-31.629-14.188-31.629-31.629-31.629m0 53.258c-11.926 0-21.629-9.703-21.629-21.629s9.703-21.629 21.629-21.629 21.629 9.703 21.629 21.629-9.703 21.629-21.629 21.629m-18.886 102.574c-21.763 0-39.468 17.705-39.468 39.468s17.705 39.468 39.468 39.468 39.468-17.705 39.468-39.468-17.706-39.468-39.468-39.468m0 68.935c-16.249 0-29.468-13.219-29.468-29.468s13.219-29.468 29.468-29.468 29.468 13.219 29.468 29.468-13.219 29.468-29.468 29.468"/></svg>