<svg xmlns="http://www.w3.org/2000/svg" width="100" height="100"><path d="M50.996 53.544c.639 0 1.287-.146 1.885-.422 1.646-.553 3.447-.601 5.153-.601l2.149.01c6.018 0 13.225-.789 22.643-10.208 15.39-15.39 8.69-29.136 8.369-29.769l-.754-1.399a2.5 2.5 0 0 0-.994-1.003l-1.519-.837c-.339-.172-3.45-1.678-8.335-1.678-5.156 0-13.053 1.748-21.381 10.075C47.922 28.005 47.971 35.47 48.01 41.468c.017 2.318.029 4.327-.594 6.182-.765 1.646-.48 3.525.734 4.734a3.98 3.98 0 0 0 2.846 1.16m2.014-12.109c-.036-5.591-.074-11.372 8.738-20.187 7.117-7.116 13.633-8.61 17.846-8.61 3.475 0 5.77.998 6.061 1.131l.734.406.367.68c.221.451 5.257 11.212-7.465 23.934-6.938 6.937-12.025 8.404-16.783 8.681l.025-2.381a.75.75 0 0 0-.742-.758h-.006a.75.75 0 0 0-.752.742l-.027 2.451q-.411.007-.822.008l-2.149-.01c-.151 0-.312.004-.468.005l.098-3.663a.75.75 0 0 0-.73-.77h-.02a.75.75 0 0 0-.75.73l-.099 3.745c-1.144.054-2.341.173-3.562.466.536-2.236.521-4.448.506-6.6"/><path d="M63.004 39.036a1.501 1.501 0 0 0 .352 2.958q.177 0 .355-.042c2.828-.687 6.024-1.791 11.23-6.998 3.547-3.546 5.802-6.998 6.7-10.258a1.5 1.5 0 0 0-2.894-.797c-.521 1.893-1.973 4.979-5.928 8.934-4.66 4.66-7.301 5.594-9.815 6.203m-3.315-.397q.178.042.355.042a1.5 1.5 0 0 0 1.456-1.146c.609-2.514 1.544-5.157 6.202-9.817a35 35 0 0 1 2.588-2.351 1.5 1.5 0 0 0 .215-2.11 1.497 1.497 0 0 0-2.109-.216 37 37 0 0 0-2.814 2.556c-5.205 5.206-6.311 8.403-6.997 11.231-.195.804.3 1.615 1.104 1.811m14.247-15.923c.217 0 .437-.047.645-.146a12.5 12.5 0 0 1 2.059-.781 1.501 1.501 0 0 0-.797-2.893c-.824.228-1.684.552-2.551.965a1.5 1.5 0 0 0 .644 2.855m14.67 48.378c-1.753-.871-3.165-2.302-4.796-3.954-4.214-4.27-9.459-9.584-24.014-9.584-21.764 0-26.746 14.458-26.965 15.129l-.459 1.521a2.5 2.5 0 0 0-.007 1.418l.483 1.664c.201.615 5.182 15.074 26.949 15.074 14.557-.001 19.799-5.314 24.012-9.584 1.629-1.649 3.039-3.079 4.791-3.95 1.705-.621 2.833-2.151 2.831-3.872-.001-1.711-1.127-3.238-2.825-3.862m-8.352 8.173c-3.93 3.979-7.989 8.095-20.455 8.096-17.67 0-21.889-10.773-22.189-11.61l-.236-.812.224-.739c.164-.476 4.21-11.646 22.2-11.646 12.465 0 16.527 4.116 20.455 8.097 1.512 1.531 3.066 3.106 5.026 4.307-1.961 1.201-3.514 2.775-5.025 4.307"/><path d="M73.051 71.335c-2.484-1.515-5.527-2.994-12.887-2.994-5.016 0-9.051.847-11.992 2.518a1.5 1.5 0 1 0 1.481 2.609c1.709-.971 4.919-2.127 10.512-2.127 6.587 0 9.115 1.209 11.327 2.557a1.5 1.5 0 1 0 1.559-2.563m-1.561 4.686c-2.208 1.348-4.735 2.557-11.326 2.557-5.592-.001-8.802-1.157-10.512-2.128a1.5 1.5 0 0 0-1.481 2.609c2.943 1.67 6.979 2.518 11.992 2.519 7.363 0 10.405-1.48 12.889-2.996a1.5 1.5 0 0 0-1.562-2.561m-29.48-33.06c2.31-14.373-2.105-20.394-5.654-25.23-1.369-1.868-2.557-3.487-3.14-5.354-.34-1.777-1.669-3.134-3.378-3.412-1.713-.27-3.377.614-4.259 2.181-1.137 1.593-2.773 2.76-4.663 4.107-4.885 3.483-10.963 7.818-13.271 22.188-3.453 21.49 10.031 28.701 10.662 29.025l1.432.692a2.5 2.5 0 0 0 1.393.231l1.721-.212c.638-.1 15.706-2.726 19.157-24.216M22.09 62.235l-.836.103-.713-.344c-.108-.056-10.844-5.809-7.959-23.76 1.977-12.306 6.684-15.664 11.237-18.911 1.752-1.249 3.554-2.534 5.05-4.279.875 2.125 2.184 3.909 3.455 5.644 3.308 4.509 6.727 9.171 4.748 21.48-2.801 17.437-14.097 19.901-14.982 20.067"/><path d="M25.633 28.488a1.5 1.5 0 0 0-2.281-1.947c-1.889 2.214-3.832 4.982-5 12.25-.795 4.955-.598 9.072.584 12.239a1.504 1.504 0 0 0 1.931.88 1.5 1.5 0 0 0 .88-1.931c-.688-1.838-1.319-5.188-.433-10.713 1.045-6.504 2.639-8.81 4.319-10.778m2.918-1.619a1.5 1.5 0 0 0-.82 1.956c.982 2.395 1.774 5.082.727 11.59-.886 5.521-2.537 8.507-3.767 10.04a1.5 1.5 0 1 0 2.341 1.876c2.117-2.641 3.594-6.49 4.391-11.44 1.168-7.271.188-10.51-.916-13.203a1.5 1.5 0 0 0-1.956-.819"/></svg>