<svg xmlns="http://www.w3.org/2000/svg" viewBox="0 0 512 512"><path d="M501.473 193.052c-7.91-4.553-16.261-8.372-24.928-11.465a149 149 0 0 0 9.685-7.076c11.437-9.098 8.734-27.164-4.896-32.488-19.637-7.685-41.002-11.225-62.7-10.506l14.609-15.617c36.09-17.708 65.384-51.448 76.238-91.696 3.54-13.17-8.512-25.227-21.688-21.681-40.471 10.914-74.101 40.372-91.701 76.255l-15.615 14.607c.722-21.699-2.818-43.076-10.505-62.721-5.318-13.612-23.378-16.36-32.487-4.903a149 149 0 0 0-7.079 9.688c-3.093-8.667-6.913-17.019-11.465-24.93-7.287-12.66-25.555-12.678-32.851.001-27.846 48.379-27.848 111.427 0 159.809a19 19 0 0 0 5.592 6.123l-46.809 43.789c.721-21.696-2.819-43.071-10.506-62.716-5.32-13.617-23.38-16.351-32.485-4.902a149 149 0 0 0-7.08 9.688c-3.093-8.666-6.913-17.015-11.466-24.921-3.419-5.95-9.555-9.505-16.415-9.508h-.01c-6.861 0-13.002 3.552-16.43 9.504-6.906 12.003-12.196 25.063-15.724 38.817a7.5 7.5 0 0 0 5.401 9.128 7.5 7.5 0 0 0 9.128-5.401c3.19-12.44 7.967-24.237 14.195-35.062 1.032-1.792 2.74-1.986 3.429-1.986h.002c.686 0 2.391.193 3.421 1.987 25.184 43.735 25.187 101.095-.004 144.841-1.027 1.787-2.731 1.981-3.417 1.981h-.002c-.688 0-2.396-.194-3.428-1.985-14.133-24.561-20.292-53.184-18.595-81.582a7.5 7.5 0 0 0-7.039-7.934c-4.146-.273-7.687 2.905-7.934 7.039-1.868 31.271 4.946 62.812 20.566 89.959a19 19 0 0 0 5.591 6.123l-66.785 62.476c12.485-41.378 8.341-88.736-13.927-127.425-7.288-12.661-25.555-12.678-32.851.001-27.845 48.375-27.846 111.432 0 159.808a19 19 0 0 0 5.605 6.132c-30.176 28.224-33.892 31.126-35.244 33.37-16.079 17.003-15.787 43.994.835 60.616 16.614 16.625 43.645 16.959 60.701.78 1.962-1.2 3.19-2.977 33.292-35.174a19 19 0 0 0 6.116 5.582c23.726 13.657 51.356 20.876 79.904 20.876s56.178-7.219 79.903-20.876c12.661-7.286 12.68-25.553 0-32.851-38.497-22.158-85.816-26.467-127.377-13.941l19.693-21.054a7.501 7.501 0 0 0-10.955-10.247c-8.244 8.813-85.327 91.326-90.498 96.432-11.123 10.962-29.143 10.905-40.171-.133-11.036-11.035-11.092-29.049-.128-40.155 8.122-8.221-27.895 25.985 383.49-359.046 7.286-6.818 18.874-1.445 18.874 8.185 0 4.974-3.181 7.784-3.28 7.937-6.383 6.696 44.583-47.656-247.797 264.88a7.5 7.5 0 1 0 10.954 10.248l22.265-23.8a19 19 0 0 0 6.116 5.583c48.375 27.846 111.43 27.847 159.808.001 12.663-7.289 12.678-25.555 0-32.851-7.91-4.553-16.261-8.373-24.928-11.466a150 150 0 0 0 9.685-7.076c11.439-9.099 8.733-27.164-4.896-32.487-19.64-7.687-41.008-11.229-62.708-10.508l43.782-46.8a19 19 0 0 0 6.113 5.578c48.375 27.846 111.43 27.847 159.808.001 12.665-7.291 12.683-25.557.003-32.855M55.512 245.844c1.52-2.642 5.326-2.647 6.851 0 25.181 43.752 25.178 101.096 0 144.842-1.519 2.639-5.327 2.65-6.851.001-25.129-43.657-25.228-101.014 0-144.843m210.629 203.78c2.656 1.529 2.634 5.336.001 6.851-43.751 25.182-101.097 25.179-144.843 0-2.645-1.522-2.642-5.329 0-6.851 43.752-25.181 101.096-25.178 144.842 0m209.729-293.63c2.846 1.112 3.422 4.868 1.019 6.78-6.162 4.906-12.881 9.334-19.996 13.196-27.339-5.958-56.15-4.886-82.779 3.135l29.234-31.249c25.011-3.452 50.043-.659 72.522 8.138M299.091 18.003c1.522-2.645 5.329-2.642 6.851 0 25.181 43.754 25.178 101.096 0 144.843-1.519 2.639-5.327 2.65-6.851.001-25.182-43.753-25.179-101.097 0-144.844M336.024 55.1c3.86-7.112 8.288-13.83 13.199-19.998 1.902-2.393 5.662-1.833 6.779 1.025 8.801 22.491 11.59 47.543 8.132 72.546l-31.257 29.24c7.776-25.789 9.294-54.602 3.147-82.813M200.42 181.96c3.861-7.114 8.289-13.832 13.199-19.999 1.906-2.396 5.665-1.827 6.778 1.025 8.801 22.49 11.59 47.54 8.133 72.541l-31.255 29.238c7.759-25.728 9.304-54.543 3.145-82.805M418.133 70.563c17.152-25.603 43.418-45.428 73.561-53.556 1.309-.353 2.192.286 2.604.696.412.412 1.049 1.297.699 2.6-8.159 30.256-28.06 56.497-53.591 73.588-1.302-12.452-11.246-22.034-23.273-23.328m-50.997 277.949c-43.751 25.182-101.097 25.179-144.843 0-2.64-1.519-2.647-5.327 0-6.85 43.75-25.182 101.097-25.18 144.843.001 2.647 1.524 2.642 5.328 0 6.849m-18.12-56.908c2.846 1.112 3.422 4.867 1.019 6.779-6.165 4.909-12.883 9.336-19.995 13.196-27.339-5.957-56.157-4.887-82.792 3.139l29.235-31.25c25.01-3.455 50.05-.665 72.533 8.136m144.974-78.701c-43.751 25.182-101.097 25.179-144.843 0-2.65-1.524-2.639-5.33 0-6.851 43.661-25.129 101.01-25.227 144.843 0 2.647 1.524 2.643 5.329 0 6.851"/></svg>