<svg xmlns="http://www.w3.org/2000/svg" version="1" viewBox="0 0 512 512"><path d="M430.3 488.8H79.7l7.5 7.5V151.2l-7.5 7.5h350.6l-7.5-7.5v345.1c0 9.7 15 9.7 15 0V151.2c0-4.1-3.4-7.5-7.5-7.5H79.7c-4.1 0-7.5 3.4-7.5 7.5v345.1c0 4.1 3.4 7.5 7.5 7.5h350.6c9.7 0 9.7-15 0-15"/><path d="M319.6 496.3V151.2c0-9.7-15-9.7-15 0v345.1c0 9.6 15 9.6 15 0"/><path d="M317 156.4c19.6-23.2 39.1-46.4 58.7-69.7 6.2-7.3-4.4-18-10.6-10.6-19.6 23.2-39.1 46.4-58.7 69.7-6.2 7.4 4.4 18.1 10.6 10.6"/><path d="M435.2 145.8c-19.8-23.2-39.7-46.4-59.5-69.7-6.3-7.4-16.9 3.3-10.6 10.6 19.8 23.2 39.7 46.4 59.5 69.7 6.3 7.4 16.9-3.3 10.6-10.6M85 156.4c19.6-23.2 39.1-46.4 58.7-69.7 6.2-7.3-4.4-18-10.6-10.6-19.6 23.2-39.1 46.4-58.7 69.7-6.2 7.4 4.4 18.1 10.6 10.6"/><path d="M138.4 89h232.1c9.7 0 9.7-15 0-15H138.4c-9.7 0-9.7 15 0 15m297.2 402c-20-20.1-39.9-40.2-59.9-60.3-6.8-6.9-17.4 3.7-10.6 10.6 20 20.1 39.9 40.2 59.9 60.3 6.8 6.8 17.4-3.8 10.6-10.6"/><path d="M317.4 501.6c19.4-20.1 38.9-40.2 58.3-60.3 6.7-7-3.9-17.6-10.6-10.6-19.4 20.1-38.9 40.2-58.3 60.3-6.7 6.9 3.9 17.5 10.6 10.6M370.4 74H138.3l7.5 7.5v-18c0-9.3 2.5-17.4 7.9-25 8.1-11.4 21.5-15.2 34.8-15.2h135.4c15.4 0 30.1 9.3 36 23.7 4.5 10.7 3 23.2 3 34.6 0 9.7 15 9.7 15 0 0-16.1 1-31.6-7.1-46.2-9.4-17-28.2-27-47.4-27H184.9c-20.2 0-38.8 11.4-48.1 29.3-7.1 13.8-5.9 29-5.9 44 0 4.1 3.4 7.5 7.5 7.5h232.10000000000002c9.6-.2 9.6-15.2-.1-15.2M256 389.3c9.7 0 9.7-15 0-15s-9.7 15 0 15M263.5 496.3V415c0-9.7-15-9.7-15 0v81.3c0 9.6 15 9.6 15 0M79.7 204.5c4.1 0 7.7 2.1 10 5.5 2.2 3.3 1.8 7.2 1.8 10.9 0 11 4.1 20.7 14 26.3 10.4 5.9 23.4 3.4 32-4.2 7-6.1 8.3-15.1 8.3-23.8v-19.8c0-3.6 1.5-7.2 4.4-9.5 3.5-2.7 7.4-2.5 11.6-2.5 15.2 0 12.6 16.7 12.6 27.1v117.19999999999999c0 8.4-.8 17.5 1.5 25.6 3.2 11.3 12.8 19.9 23.9 23 11.3 3.2 23.1-.5 31.7-8 10.3-9 10.9-21.7 10.9-34.1V233.6c0-9.6 7.9-12.2 15.8-12.2H312c9.7 0 9.7-15 0-15h-35.3c-12.9 0-29.5-2.6-40 6.6-9.9 8.6-9.3 20.1-9.3 31.9v88.3c0 8.9 1.6 19.5-4.7 26.8-11.9 13.7-33.3 3.9-33.3-13.3V209.9c0-8.6.5-16.7-3.9-24.5-5.7-10-16.4-12.9-27.1-12.9-15.8 0-27.6 12.4-27.6 28v15.3c0 4.2.7 9.2-1.2 13-3 6.2-9.9 7.7-16 5.7-6-1.9-7.2-8.3-7.2-13.7 0-7-.6-13.5-4.6-19.6-4.9-7.3-13.4-11.8-22.2-11.8-9.6.1-9.6 15.1.1 15.1"/></svg>