<svg xmlns="http://www.w3.org/2000/svg" width="47" height="62" fill="none"><path fill="#000" fill-rule="evenodd" d="M8.324 13.273C4.436 20.047 2.032 28.875 2.032 37c0 8.1 2.386 13.82 6.128 17.513C11.906 58.213 17.13 60 23.032 60s11.126-1.787 14.872-5.487C41.646 50.82 44.032 45.1 44.032 37c0-8.125-2.404-16.953-6.292-23.727C33.82 6.444 28.58 2 23.032 2c-5.55 0-10.788 4.444-14.708 11.273m-1.734-.996C10.62 5.256 16.38 0 23.032 0c6.65 0 12.412 5.256 16.442 12.277 4.062 7.076 6.558 16.248 6.558 24.723 0 8.5-2.513 14.78-6.722 18.937C35.106 60.087 29.33 62 23.032 62c-6.299 0-12.074-1.913-16.278-6.063C2.546 51.78.032 45.498.032 37c0-8.475 2.496-17.647 6.558-24.723" clip-rule="evenodd"/></svg>