<svg xmlns="http://www.w3.org/2000/svg" fill-rule="evenodd" stroke-linejoin="round" stroke-miterlimit="2" clip-rule="evenodd" viewBox="0 0 96 96"><path fill="none" d="M0 0h96v96H0z"/><path d="M84.789 31.861a28.38 28.38 0 0 1 7.711 19.48c0 15.727-12.769 28.496-28.496 28.496-4.315 0-8.407-.961-12.075-2.681a7.97 7.97 0 0 0-9.369 1.788c-4.143 4.489-10.071 7.342-16.661 7.342-6.566 0-12.476-2.832-16.574-7.339a1.5 1.5 0 0 0-2.22 2.018c4.647 5.111 11.349 8.321 18.794 8.321 7.461 0 14.175-3.224 18.87-8.313l.005-.005a4.97 4.97 0 0 1 5.851-1.11l.022.01a31.35 31.35 0 0 0 13.357 2.969c17.383 0 31.496-14.113 31.496-31.496 0-8.325-3.237-15.9-8.523-21.533a1.5 1.5 0 0 0-2.188 2.053M6.023 74.218A22.3 22.3 0 0 1 3.5 63.887c0-8.103 4.313-15.207 10.766-19.141l.003-.001a8.01 8.01 0 0 0 3.594-8.747l-.003-.011a20.3 20.3 0 0 1-.618-5.027c0-11.726 9.52-21.246 21.246-21.246a21.15 21.15 0 0 1 13.225 4.623 8.05 8.05 0 0 0 8.688.813l.048-.026c2.111-1.197 4.561-1.801 7.15-1.801 6.956 0 12.9 4.366 15.239 10.505a1.501 1.501 0 0 0 2.804-1.068c-2.77-7.268-9.807-12.437-18.043-12.437-3.123 0-6.073.744-8.62 2.186a5.04 5.04 0 0 1-5.41-.529 24.14 24.14 0 0 0-15.081-5.266c-13.382 0-24.246 10.865-24.246 24.246 0 1.986.239 3.915.708 5.758a5.01 5.01 0 0 1-2.248 5.468C5.388 46.644.5 54.699.5 63.887c0 4.225 1.034 8.211 2.863 11.718a1.501 1.501 0 0 0 2.66-1.387"/><path d="M38.524 35.478A13.26 13.26 0 0 1 48 31.504c7.338 0 13.295 5.958 13.295 13.295 0 7.338-5.957 13.295-13.295 13.295s-13.295-5.957-13.295-13.295c0-1.626.292-3.185.828-4.626a1.5 1.5 0 0 0-2.812-1.046 16.2 16.2 0 0 0-1.016 5.672c0 8.994 7.302 16.295 16.295 16.295s16.295-7.301 16.295-16.295c0-8.993-7.302-16.295-16.295-16.295a16.25 16.25 0 0 0-11.615 4.87 1.501 1.501 0 0 0 2.139 2.104"/></svg>