<svg xmlns="http://www.w3.org/2000/svg" viewBox="0 0 64 64"><path d="M24.4 8.5c.1.5.7.9 1.2.8s.9-.7.8-1.2l-.6-2.9 3.6 3.6c.9.8 1.5-.1 1.7-.4l.9-3.2 1.1 3.2c.1.3.8 1.1 1.7.4l3.6-3.6-.6 2.9c-1.1 5 .9 10.3 5.1 13.5.2.1 1 .4 1.4-.2.3-.4.2-1.1-.2-1.4-3.6-2.7-5.3-7.1-4.4-11.4L41 2.2c.1-.4-.1-.9-.5-1.1s-.9-.1-1.2.2l-4.9 4.9-1.5-4.5c-.1-.4-.5-.7-.9-.7s-.8.3-.9.7l-1.5 4.5-4.9-4.9c-.3-.3-.8-.4-1.2-.2s-.6.7-.5 1.1zM11 36c0-5.8 5.6-11.1 10.2-14.5 3-2.2 4.9-5.5 5.3-9.1.1-.5-.3-1-.9-1.1-.5-.1-1 .3-1.1.9-.4 3-2 5.8-4.5 7.7C12.7 25.3 9 30.7 9 36c0 .6.4 1 1 1s1-.4 1-1m1 6.3c-.3-.8-.5-1.7-.6-2.5-.1-.5-.6-.9-1.2-.8-.5.1-.9.6-.8 1.2.2.9.4 1.9.7 2.8.1.4.6.9 1.3.7.4-.3.7-.8.6-1.4M55 36c0-4.2-2.4-8.6-7.2-13-.4-.4-1-.3-1.4.1s-.3 1 .1 1.4c4.4 4 6.6 7.9 6.6 11.5 0 11.6-9.4 21-21 21-7.9 0-15-4.3-18.7-11.3-.3-.5-.9-.7-1.3-.4-.5.3-.7.9-.4 1.3 3.5 6.8 10 11.3 17.4 12.2l-3.6 2.4c-.5.3-.6.9-.3 1.4.4.7 1.2.4 1.4.3l4.4-3V62c0 .6.4 1 1 1s1-.4 1-1v-2.1l4.4 3c.2.1.9.4 1.4-.3.3-.5.2-1.1-.3-1.4L35 58.8C46.3 57.3 55 47.7 55 36"/><path d="M25.7 22.8c.4-.3.5-1 .2-1.4s-1-.5-1.4-.2c-9.4 7.5-11.4 21-4.4 30.9.2.3 1 .6 1.4.2.4-.3.6-.9.2-1.4-6.4-8.9-4.6-21.3 4-28.1"/><path d="M30.6 23.2c-.4-.3-1.1-.2-1.4.2-6.8 9.1-7.2 21.6-1 31.1.2.3.9.6 1.4.3.4-.3.6-.9.3-1.4-5.7-8.8-5.3-20.4 1-28.8.2-.4.1-1.1-.3-1.4m12 29.2c.4.4 1.2 0 1.4-.2 6.9-9.9 5-23.4-4.4-30.9-.4-.3-1.1-.3-1.4.2-.3.4-.3 1.1.2 1.4 8.6 6.8 10.4 19.2 4 28.2-.4.3-.2.9.2 1.3M38.7 45c-.5-.1-1.1.2-1.2.7-.7 2.8-1.8 5.4-3.3 7.7-.3.5-.2 1.1.3 1.4s1.2 0 1.4-.3c1.7-2.6 2.9-5.4 3.6-8.3.1-.6-.2-1.1-.8-1.2"/><path d="M40.2 41.4c.4-6.4-1.5-12.8-5.4-18-.3-.4-1-.5-1.4-.2s-.5 1-.2 1.4c3.6 4.8 5.4 10.7 5 16.6 0 .6.5 1.1 1 1.1s1-.4 1-.9"/></svg>