<svg xmlns="http://www.w3.org/2000/svg" viewBox="0 0 64 64"><path d="M56.581 42.516A15.2 15.2 0 0 0 46.869 39h-.005a14.8 14.8 0 0 0-4.316.644 10.96 10.96 0 0 1-3.388-3.765A28.9 28.9 0 0 1 43.8 26.6l3-4-1.6-1.2-3 4a31 31 0 0 0-3.36 5.645l-2.894-3.472a39.9 39.9 0 0 0-15.117-26.2l-.22-.169A1 1 0 0 0 19 2a31.18 31.18 0 0 0 15.062 26.6l.277.165 3.632 4.359-.081.21-3.85.642-5.369-1.342a21.5 21.5 0 0 0-15.923 2.268L5.5 39.136a1 1 0 0 0 .325 1.847l7.943 1.446a23 23 0 0 0 4.13.371c.305 0 .61-.011.915-.023l-2.652 2.652A7.364 7.364 0 0 0 21.364 58a16.4 16.4 0 0 0 6.49-1.353C29.291 60.393 32.4 63 36 63c3.837 0 7.112-2.956 8.4-7.1.618.058 1.237.1 1.854.1a18.9 18.9 0 0 0 9.355-2.484 6.72 6.72 0 0 0 .968-11Zm-35.5-38.361a37.95 37.95 0 0 1 12.6 21.826 29.21 29.21 0 0 1-12.6-21.826M40.362 40.5a15 15 0 0 0-1.711.986c-.167-.063-.339-.109-.51-.16q.129-1.406.39-2.783a13 13 0 0 0 1.831 1.957m-5.8.652a8 8 0 0 0-.481-.5 16 16 0 0 0 2.3-1.416c-.091.589-.16 1.181-.218 1.776-.055 0-.109-.01-.164-.01a7.4 7.4 0 0 0-1.44.152Zm-.121-5.213 2.756-.459c-.051.175-.086.355-.133.531a13.8 13.8 0 0 1-4.82 3.258 9 9 0 0 0-1.2-.581 23 23 0 0 0 1.877-1.449Zm-20.317 4.52L8.841 39.5l4.915-2.866a19.49 19.49 0 0 1 14.431-2.057l3.692.924-.259.223a21 21 0 0 1-3.326 2.32c-.258-.021-.517-.044-.779-.044a9.4 9.4 0 0 0-6.461 2.555 27 27 0 0 1-1.061.14 21 21 0 0 1-5.872-.234ZM21.364 56a5.364 5.364 0 0 1-3.793-9.157l4.651-4.651a7.47 7.47 0 0 1 10.245-.307C29.256 43.567 27 47.467 27 52a13.2 13.2 0 0 0 .284 2.69 14.35 14.35 0 0 1-5.92 1.31M36 61c-3.859 0-7-4.037-7-9s3.141-9 7-9 7 4.037 7 9-3.141 9-7 9m18.621-9.221a17.13 17.13 0 0 1-9.769 2.153A13 13 0 0 0 45 52a11.67 11.67 0 0 0-4.343-9.4 12.8 12.8 0 0 1 6.207-1.6h.005a13.2 13.2 0 0 1 8.431 3.053 4.722 4.722 0 0 1-.681 7.726Z"/><path d="M19 50v2a2 2 0 0 1 2 2h2a4 4 0 0 0-4-4m14.586 8-.293.293 1.414 1.414.293-.293a1.45 1.45 0 0 1 2 0l.293.293 1.414-1.414-.293-.293a3.5 3.5 0 0 0-4.828 0M52 49.236V50h2v-.764a2.6 2.6 0 0 1 1.447-2.336l-.894-1.79A4.6 4.6 0 0 0 52 49.236"/></svg>