<svg xmlns="http://www.w3.org/2000/svg" viewBox="0 0 48 48"><path fill="#1c1c1b" d="M45.062 38.342a3.8 3.8 0 0 0-.308-5.919 3.81 3.81 0 0 0-.038-6.2 5.19 5.19 0 0 0 3.238-4.107 7.22 7.22 0 0 0-2.112-5.58C42.027 12.288 34.1 9.73 24.483 9.639V7.882h8.356a.75.75 0 0 0 .75-.75V.75a.75.75 0 0 0-.75-.75h-9.106a.75.75 0 0 0-.75.75v8.9c-9.327.167-17.07 2.71-20.824 6.886a7.22 7.22 0 0 0-2.113 5.58 5.19 5.19 0 0 0 3.238 4.107 3.82 3.82 0 0 0-1.61 3.034v.036c0 .016-.005.031-.005.047a3.82 3.82 0 0 0 1.58 3.087 3.8 3.8 0 0 0-.308 5.919A5.067 5.067 0 0 0 5.091 48h37.818a5.067 5.067 0 0 0 2.153-9.658M24.483 1.5h7.606v4.882h-7.606ZM36.345 27a.75.75 0 0 0 0-1.5H7.122c-2.508 0-5.324-1.11-5.584-3.547a5.78 5.78 0 0 1 1.737-4.419c3.605-4.01 11.336-6.4 20.768-6.4 9.347 0 17.078 2.394 20.683 6.4a5.77 5.77 0 0 1 1.736 4.418C46.2 24.39 43.386 25.5 40.878 25.5h-1.941a.75.75 0 0 0 0 1.5h1.37a4.37 4.37 0 0 0-.7 2.442v2.981a1.652 1.652 0 0 1-3.267 0v-.976a3.142 3.142 0 0 0-6.266 0v2.986a1.652 1.652 0 0 1-3.266 0v-2.806a3.143 3.143 0 0 0-6.267 0v.535a1.53 1.53 0 0 1-1.633 1.4 1.533 1.533 0 0 1-1.633-1.4v-1.429a1.564 1.564 0 0 0-1.427-1.559 25 25 0 0 1-4.535-.876 14.7 14.7 0 0 0-4.116-.672 15 15 0 0 0-3.743.618A2.33 2.33 0 0 1 5.5 27Zm6.564 19.5H5.091a3.578 3.578 0 0 1 0-7.155 1 1 0 0 0 .136-.027c.093.007.181.028.276.028a.75.75 0 0 0 0-1.5 2.337 2.337 0 1 1 0-4.673h8.866a.75.75 0 1 0 0-1.5H5.5a2.34 2.34 0 0 1-2.27-1.8 15.4 15.4 0 0 1 3.96-.742 13.1 13.1 0 0 1 3.726.62 31.6 31.6 0 0 0 4.852.987v1.429a3.03 3.03 0 0 0 3.133 2.9 3.03 3.03 0 0 0 3.133-2.9v-.535a1.652 1.652 0 0 1 3.267 0v2.806a3.142 3.142 0 0 0 6.266 0v-2.991a1.652 1.652 0 0 1 3.266 0v.976a3.143 3.143 0 0 0 6.267 0v-2.981c0-1.537.925-2.37 1.63-2.418a2.33 2.33 0 0 1-.237 4.649.75.75 0 0 0 0 1.5 2.336 2.336 0 0 1 .005 4.672H8.127a.75.75 0 0 0 0 1.5h34.782a3.578 3.578 0 0 1 0 7.155"/><path fill="#1c1c1b" d="m29.362 2.847-.33.1v-.328a.75.75 0 1 0-1.5 0v.329l-.32-.1a.75.75 0 1 0-.447 1.431l.3.095-.2.277a.75.75 0 1 0 1.219.874l.194-.27.2.27a.75.75 0 1 0 1.222-.874l-.2-.275.31-.1a.75.75 0 0 0-.446-1.433Z"/></svg>