<svg xmlns="http://www.w3.org/2000/svg" viewBox="0 0 32 32"><path d="M21.2 28c-.4 0-.9-.1-1.2-.3l-8.4-4.9c-.6-.3-1-.9-1.2-1.5s-.1-1.3.3-1.9l3.7-6.5c.2-.3.2-.7.1-1.1-.2-.6-.1-1.3.2-1.9.9-1.5 2.7-2.3 4.4-1.9 3.7.9 7.1 2.9 9.7 5.6l-.4.3.4-.3c1.2 1.3 1.5 3.2.6 4.8-.3.6-.9 1-1.5 1.1-.4.1-.7.3-.9.7l-3.7 6.5c-.4.9-1.2 1.3-2.1 1.3m-3-19c-1 0-2 .6-2.6 1.5-.2.3-.2.7-.1 1.1.2.6.1 1.3-.2 1.9L11.6 20c-.2.3-.3.8-.1 1.1.1.4.4.7.7.9l8.4 4.9c.7.4 1.6.2 2-.5l3.7-6.5c.3-.6.9-1 1.5-1.1.4-.1.7-.3.9-.7.7-1.1.5-2.6-.4-3.6-2.5-2.6-5.7-4.5-9.3-5.3-.3-.2-.6-.2-.8-.2"/><circle cx="7.5" cy="14.5" r=".5"/><circle cx="9.5" cy="16.5" r=".5"/><circle cx="10.5" cy="14.5" r=".5"/><circle cx="9.5" cy="12.5" r=".5"/><circle cx="11.5" cy="9.5" r=".5"/><circle cx="8.5" cy="10.5" r=".5"/><circle cx="13.5" cy="11.5" r=".5"/><circle cx="16.5" cy="14.5" r=".5"/><circle cx="15.5" cy="7.5" r=".5"/><circle cx="17.5" cy="12.5" r=".5"/><circle cx="19.5" cy="13.5" r=".5"/><circle cx="21.5" cy="14.5" r=".5"/><circle cx="20.5" cy="16.5" r=".5"/><circle cx="17.5" cy="17.5" r=".5"/><circle cx="18.5" cy="20.5" r=".5"/><circle cx="20.5" cy="21.5" r=".5"/><circle cx="21.5" cy="19.5" r=".5"/><circle cx="24.5" cy="19.5" r=".5"/><circle cx="24.5" cy="16.5" r=".5"/><circle cx="26.5" cy="17.5" r=".5"/><circle cx="16.5" cy="19.5" r=".5"/><path d="M8.3 22.8c-.4 0-.9-.1-1.2-.3-.6-.3-1-.9-1.2-1.5L4 13.7c-.1-.4-.3-.7-.7-.9-.6-.3-1-.9-1.1-1.5-.5-1.7.2-3.5 1.7-4.4 3.3-2 7.1-3 10.9-2.9 1.8 0 3.3 1.2 3.8 2.9.2.6.1 1.2-.2 1.8-.1.2-.3.3-.4.3-1 .1-1.9.6-2.3 1.5-.2.3-.2.7-.1 1.1.2.6.1 1.3-.2 1.9L11.7 20q-.45.75 0 1.5c.1.1.1.3 0 .4l-.3.3-2.4.5c-.3.1-.5.1-.7.1M14.4 5c-3.5 0-7 1-10 2.8-1.1.7-1.7 2-1.3 3.3.1.4.3.7.7.9.6.3 1 .9 1.1 1.5l1.9 7.2c.2.8 1 1.3 1.8 1.1l1.7-.5c-.2-.6-.1-1.3.2-1.9l3.7-6.5c.2-.3.2-.7.1-1.1-.2-.6-.1-1.3.2-1.9.6-1 1.6-1.8 2.8-1.9.1-.3.1-.5 0-.8-.1-1.3-1.2-2.2-2.5-2.2zM11 19.6"/></svg>