<svg xmlns="http://www.w3.org/2000/svg" fill-rule="evenodd" stroke-linejoin="round" stroke-miterlimit="2" clip-rule="evenodd" viewBox="0 0 32 32"><path d="M18.108 7.733c.227-.218.457-.422.685-.622a.5.5 0 0 1 .572-.061c1.089.605 2.137.979 2.877 1.048q.243.024.426-.005a.6.6 0 0 0 .104-.027c.016-.006.034-.003.041-.015.011-.019-.006-.042-.013-.069a1 1 0 0 0-.098-.238c-.156-.284-.431-.604-.792-.938l-.004-.003a1.5 1.5 0 0 1 .168-2.319c1.372-.966 2.584-1.605 3.604-1.857 1.171-.289 2.119-.091 2.829.618 1.019 1.02 1.281 2.978.626 5.475-.912 3.473-3.556 8.06-7.94 12.445s-8.972 7.028-12.445 7.939c-2.497.656-4.455.394-5.474-.625-.667-.667-.881-1.543-.667-2.616.277-1.383 1.317-3.145 2.944-5.2a.5.5 0 0 1 .627-.13v-.001c1.043.555 2.033.895 2.731.948q.226.018.396-.012c.056-.011.109-.003.13-.039.009-.016-.005-.034-.01-.056a.7.7 0 0 0-.039-.122c-.083-.203-.246-.43-.467-.676a2.833 2.833 0 0 1 .043-3.808q.355-.393.733-.788a.5.5 0 0 1 .61-.089c1.123.641 2.213 1.043 2.984 1.123q.256.029.449 0a.6.6 0 0 0 .111-.027c.018-.006.038-.003.046-.016.01-.017-.006-.038-.011-.061a1 1 0 0 0-.043-.128c-.09-.211-.262-.446-.496-.702a2.83 2.83 0 0 1 .1-3.899c.294-.306.55-.56.684-.693a.5.5 0 0 1 .601-.077c1.13.651 2.231 1.059 3.01 1.143q.26.03.454.001a.6.6 0 0 0 .114-.027c.018-.006.038-.003.046-.017s-.005-.032-.009-.052a1 1 0 0 0-.036-.116c-.079-.197-.234-.417-.447-.658a2.83 2.83 0 0 1 .246-3.951M6.083 21.606c-1.129 1.458-1.936 2.742-2.319 3.828-.347.983-.344 1.776.217 2.338.391.391.971.606 1.687.675.799.078 1.755-.029 2.826-.31 3.351-.879 7.762-3.45 11.992-7.68 4.229-4.229 6.8-8.641 7.679-11.991.281-1.071.388-2.028.311-2.826-.07-.716-.284-1.296-.676-1.687-.469-.47-1.108-.547-1.882-.355-.927.229-2.021.826-3.27 1.705a.5.5 0 0 0-.056.772l-.003-.003c.557.516.937 1.019 1.104 1.431.169.415.144.774-.014 1.048-.178.308-.544.526-1.092.554-.781.04-2.049-.314-3.394-1.012l-.408.376a1.83 1.83 0 0 0-.169 2.558c.367.416.599.812.687 1.138.088.329.05.615-.083.845-.182.315-.562.536-1.132.556-.815.029-2.137-.358-3.522-1.102-.117.118-.257.26-.408.417a1.83 1.83 0 0 0-.072 2.526c.395.432.649.845.748 1.185.1.343.064.64-.073.878-.181.313-.559.534-1.124.555-.806.031-2.11-.346-3.482-1.077q-.23.244-.455.494a1.834 1.834 0 0 0-.035 2.467c.38.424.622.827.715 1.16.094.335.057.626-.079.86-.173.301-.524.515-1.049.552-.729.05-1.902-.254-3.169-.875"/></svg>