<svg xmlns="http://www.w3.org/2000/svg" viewBox="0 0 512 512"><path d="M492.913 323.186C503.9 319.031 511 308.918 511 297.422v-16.16c0-24.973-16.007-46.268-38.296-54.19l-36.303-150.4c-8.952-37.08-51.139-54.915-83.972-35.474l-132.92 78.67a7.5 7.5 0 0 0-2.634 10.274 7.497 7.497 0 0 0 10.274 2.634l132.921-78.67c24.133-14.292 55.165-1.19 61.748 26.086l34.655 143.57H73.399l127.929-75.706a7.5 7.5 0 1 0-7.638-12.909l-151.51 89.66C24.329 235.37 1 247.055 1 281.261v16.16c0 11.496 7.1 21.609 18.093 25.768 11.608 4.379 19.407 15.66 19.407 28.072 0 12.418-7.799 23.703-19.405 28.082C8.103 383.487 1 393.601 1 405.111v16.15c0 31.706 25.794 57.5 57.5 57.5h295c4.143 0 7.5-3.357 7.5-7.5s-3.357-7.5-7.5-7.5h-295c-23.435 0-42.5-19.065-42.5-42.5v-16.15c0-5.206 3.292-9.812 8.388-11.732 17.413-6.57 29.112-23.495 29.112-42.117 0-18.616-11.699-35.537-29.106-42.104-5.099-1.93-8.394-6.536-8.394-11.736v-16.16c0-23.435 19.065-42.5 42.5-42.5h395c23.435 0 42.5 19.065 42.5 42.5v16.16c0 5.2-3.295 9.807-8.388 11.732-17.413 6.57-29.112 23.491-29.112 42.107 0 18.622 11.699 35.547 29.114 42.117 5.094 1.921 8.386 6.526 8.386 11.732v16.15c0 23.435-19.065 42.5-42.5 42.5h-70c-4.143 0-7.5 3.357-7.5 7.5s3.357 7.5 7.5 7.5h70c31.706 0 57.5-25.794 57.5-57.5v-16.15c0-11.51-7.103-21.624-18.093-25.768-11.608-4.379-19.407-15.664-19.407-28.082 0-12.411 7.799-23.692 19.413-28.074"/><path d="M124.75 373.764c-16.542 0-30 13.458-30 30s13.458 30 30 30 30-13.458 30-30-13.458-30-30-30m0 45c-8.271 0-15-6.729-15-15s6.729-15 15-15 15 6.729 15 15-6.729 15-15 15m262.5 15c16.542 0 30-13.458 30-30s-13.458-30-30-30-30 13.458-30 30 13.458 30 30 30m0-45c8.271 0 15 6.729 15 15s-6.729 15-15 15-15-6.729-15-15 6.729-15 15-15M226 351.264c0 16.542 13.458 30 30 30s30-13.458 30-30-13.458-30-30-30-30 13.458-30 30m45 0c0 8.271-6.729 15-15 15s-15-6.729-15-15 6.729-15 15-15 15 6.729 15 15m135-247.499c0-16.542-13.458-30-30-30s-30 13.458-30 30 13.458 30 30 30 30-13.458 30-30m-45 0c0-8.271 6.729-15 15-15s15 6.729 15 15-6.729 15-15 15-15-6.729-15-15m-45 67.5c0-16.542-13.458-30-30-30s-30 13.458-30 30 13.458 30 30 30 30-13.458 30-30m-45 0c0-8.271 6.729-15 15-15s15 6.729 15 15-6.729 15-15 15-15-6.729-15-15m-146.25 97.499c-16.542 0-30 13.458-30 30s13.458 30 30 30 30-13.458 30-30-13.458-30-30-30m0 45c-8.271 0-15-6.729-15-15s6.729-15 15-15 15 6.729 15 15-6.729 15-15 15m262.5 15c16.542 0 30-13.458 30-30s-13.458-30-30-30-30 13.458-30 30 13.458 30 30 30m0-45c8.271 0 15 6.729 15 15s-6.729 15-15 15-15-6.729-15-15 6.729-15 15-15"/></svg>