<svg xmlns="http://www.w3.org/2000/svg" viewBox="0 0 48 48"><path fill-rule="evenodd" d="M7.89 9.84c-3.32 1.89-4.22 5.13-3.79 7.03.28 1.22 1.05 1.99 2.07 2.11l4.25 21.28A4.67 4.67 0 0 0 15 44.01h17.99c2.22 0 4.14-1.57 4.58-3.75l4.25-21.28c1.01-.12 1.79-.89 2.07-2.11.44-1.89-.47-5.13-3.79-7.03.57-.64.89-1.47.89-2.34 0-.93-.37-1.82-1.03-2.47A3.5 3.5 0 0 0 37.49 4H10.5c-.93 0-1.82.37-2.47 1.03C7.37 5.69 7 6.58 7 7.5c0 .86.32 1.7.89 2.34m31.95 8.85c-.6-.22-1.12-.55-1.58-.88-.33-.23-.63-.47-.92-.64-.16-.09-.3-.17-.47-.17-.25 0-.42.16-.61.31-.24.2-.47.44-.72.66-.57.51-1.23.93-2.07 1.02-.83.09-1.68-.26-2.51-.78-.46-.29-.91-.62-1.37-.88-.3-.18-.6-.33-.9-.33-.27 0-.49.13-.71.27-.25.16-.49.35-.74.53-.83.61-1.79 1.19-3.22 1.19s-2.39-.58-3.22-1.19c-.26-.19-.5-.38-.74-.53-.22-.15-.44-.27-.71-.27-.3 0-.6.15-.9.33-.46.26-.91.6-1.37.88-.83.52-1.68.87-2.51.78-.85-.09-1.5-.51-2.07-1.02-.25-.22-.48-.45-.72-.66-.19-.16-.36-.31-.61-.31-.17 0-.32.08-.47.17-.3.17-.6.41-.92.64-.47.33-.98.65-1.58.88l4.23 21.17A2.656 2.656 0 0 0 15.04 42h17.99c1.27 0 2.37-.9 2.61-2.14l4.23-21.17ZM30.45 20c-1.91 0-3.08.6-3.83 1.46-.73.84-1.05 2-1.14 3.28-.07 1.09.03 2.28.09 3.41.05.97.1 1.88-.09 2.59-.21.81-.75 1.77-1.27 2.75-.61 1.14-1.2 2.3-1.44 3.34-.21.89-.17 1.71.18 2.41.35.69 1 1.31 2.18 1.7 3.53 1.18 5.9-.28 7.52-2.63 1.44-2.1 2.25-4.98 2.77-7.07.52-2.07.41-5.58-.69-8.05-.85-1.9-2.27-3.2-4.28-3.2ZM17 39c.55 0 1 .45 1 1s-.45 1-1 1-1-.45-1-1 .45-1 1-1m17 0c.55 0 1 .45 1 1s-.45 1-1 1-1-.45-1-1 .45-1 1-1m-4.09-16.98c-.83.07-1.41.32-1.77.75-.46.54-.6 1.29-.65 2.11-.14 2.17.37 4.75-.06 6.38-.39 1.49-1.72 3.44-2.42 5.18-.29.72-.52 1.39-.25 1.92.16.31.5.52 1.02.7 2.47.82 4.1-.22 5.24-1.87 1.31-1.9 2-4.52 2.48-6.43.43-1.74.35-4.67-.58-6.74-.21-.48-.47-.92-.79-1.26-.03.03-.07.05-.1.08-1.39.93-.97 2.17-.86 3.32.12 1.29.05 2.52-.99 3.56a.996.996 0 0 1-1.41 0c-.39-.39-.39-1.02 0-1.42.38-.38.46-.84.45-1.3 0-.45-.07-.92-.12-1.39-.12-1.25-.11-2.49.83-3.58ZM20 37c.55 0 1 .45 1 1s-.45 1-1 1-1-.45-1-1 .45-1 1-1m9-4.89c-1.24.62-1.49 1.48-1.54 2.39-.01.27 0 .55-.01.83-.01.29-.05.59-.44.78-.49.25-.69.85-.45 1.34.25.49.85.69 1.34.45 1.24-.62 1.49-1.48 1.54-2.39.02-.27 0-.55.01-.83.01-.29.05-.59.44-.78.49-.25.69-.85.45-1.34a1.01 1.01 0 0 0-1.34-.45M14 35c.55 0 1 .45 1 1s-.45 1-1 1-1-.45-1-1 .45-1 1-1m2.92-15c-1.69 0-2.94 1.11-3.7 2.72-.98 2.07-1.13 4.97-.75 6.52.43 1.71 1.1 3.54 2.03 4.91.8 1.18 1.79 2.04 2.93 2.36 1.18.33 2.56.15 4.12-.96 1.66-1.18 1.76-2.72 1.27-4.34-.36-1.2-1.11-2.45-1.42-3.5-.1-.33-.04-.73.03-1.16.1-.6.25-1.23.35-1.85.19-1.22.12-2.37-.56-3.24-.64-.81-1.88-1.46-4.3-1.46m.86 2.03c.7 1 .66 1.82.53 2.64-.09.57-.34 1.13.03 1.89a.99.99 0 0 1-.45 1.34.99.99 0 0 1-1.34-.45c-.52-1.05-.44-1.88-.3-2.68.07-.39.2-.77.08-1.19-.08-.27-.27-.54-.59-.87-.03-.03-.06-.07-.09-.1-.24.27-.45.61-.62.97-.78 1.65-.92 3.95-.62 5.18.37 1.49.94 3.08 1.75 4.28.51.75 1.09 1.35 1.82 1.56.7.2 1.49 0 2.42-.66.8-.57.75-1.34.51-2.13-.37-1.21-1.12-2.46-1.43-3.52-.14-.48-.16-1.05-.08-1.66.08-.7.28-1.48.4-2.23.1-.63.19-1.25-.16-1.7-.31-.4-.9-.6-1.87-.67Zm-.32 9.18c0 .05-.02.15-.03.21-.03.18-.05.35-.06.53-.02.54.1 1.1.73 1.69a.996.996 0 1 0 1.36-1.46c-.14-.13-.08-.27-.07-.39.04-.24.07-.48.06-.72-.03-.62-.26-1.35-1.69-1.98-.51-.22-1.1.01-1.32.52s.01 1.1.52 1.32c.22.1.43.24.49.29ZM36.99 22c.55 0 1 .45 1 1s-.45 1-1 1-1-.45-1-1 .45-1 1-1m-13-2c.55 0 1 .45 1 1s-.45 1-1 1-1-.45-1-1 .45-1 1-1m-12-1c.55 0 1 .45 1 1s-.45 1-1 1-1-.45-1-1 .45-1 1-1m24 0c.55 0 1 .45 1 1s-.45 1-1 1-1-.45-1-1 .45-1 1-1m-25.81-8.01c-2.9 1.03-4.13 3.19-4.18 4.8-.01.35.03.66.14.91.07.16.16.3.32.3 1.15 0 1.88-.63 2.53-1.11.72-.52 1.41-.89 2.15-.89.8 0 1.44.38 2.04.91.24.21.47.45.73.66.24.2.5.4.85.43.22.02.43-.06.64-.16.35-.16.69-.39 1.03-.62.95-.64 1.94-1.23 2.89-1.23.84 0 1.53.38 2.24.9.64.47 1.3 1.1 2.44 1.1s1.8-.63 2.44-1.1c.71-.52 1.4-.9 2.24-.9.95 0 1.94.59 2.89 1.23.35.23.69.46 1.03.62.22.1.43.18.64.16.35-.04.61-.23.85-.43.25-.21.49-.45.73-.66.6-.53 1.24-.91 2.04-.91.74 0 1.42.37 2.15.89.65.47 1.38 1.11 2.53 1.11.16 0 .25-.14.32-.3.11-.25.15-.56.14-.91-.05-1.61-1.27-3.76-4.18-4.8-.11.01-27.53.01-27.64 0M9 7.5A1.5 1.5 0 0 1 10.5 6h27a1.499 1.499 0 0 1 1.06 2.56c-.28.28-.66.44-1.06.44h-27A1.5 1.5 0 0 1 9 7.5"/></svg>