<svg xmlns="http://www.w3.org/2000/svg" width="512" height="512"><path d="m126.029 433.759-9.8-17.697c-8.509-14.301-14.458-16.854-28.768-25.082l-23.22-13.418-43.915-29.506c-4.337-3.196-10.733-7.283-11.624-13.025-1.288-8.309 4.712-13.979 11.01-18.141 16.735-11.059 35.626-13.359 55.163-11.699l8.75.758c27.724 3.743 58.092 13.197 80.801 29.775l15.953-16.818c-4.322-3.883-8.253-8.359-12.394-12.452l-15.171-14.763c-6.034-6.339.639-16.623 8.428-12.581 3.974 2.063 7.397 6.09 10.614 9.185l14.263 13.947c1.439 1.431 3.182 3.743 4.901 4.684l11.708-12.733c-8.088-10.409-38.264-34.366-38.78-44.159-.305-5.794 6.71-11.135 12.83-5.595 2.456 2.223 4.613 4.882 6.781 7.381l30.365 31.723 14.12-13.807c-.457-.817-1.857-1.692-2.578-2.373l-8.549-8.194c-9.733-9.379-19.317-18.794-28.048-29.134l-7.894-10.176c-1.857-2.442-5.134-5.806-5.634-8.863-1.13-6.903 6.981-12.459 12.284-7.454 2.063 1.946 3.759 4.58 5.526 6.807l10.723 13.069c11.029 12.684 23.184 24.582 35.692 35.795 5.09-4.579 9.232-10.029 15.115-15.005-2.398-2.588-8.011-6.851-11.112-9.751-11.003-10.289-50.217-49.415-52.259-62.957-1.086-7.206 7.463-11.705 12.442-6.414 2.785 2.959 4.94 6.98 7.339 10.289l27.17 32.292 27.867 26.031 16.403-16.131-22.124-20.553c-16.926-16.487-36.653-38.024-45.747-59.909-5.048-12.147-3.564-12.655 4.36-21.48L235.295 98.3c23.515-23.49 43.849-38.801 73.513-52.913l24.012-10.503c32.457-12.431 67.306-19.755 101.835-23.209l33.61-1.992 15.365.002c18.417.056 17.566 1.322 18.691 17.468l1.169 14.653c.445 6.119.198 12.408.203 18.548l-1.021 25.17c-5.089 59.38-26.93 118.344-66.322 163.604l-15.937 17.454-11.483 10.624c-8.024 7.176-10.127 11.604-20.68 6.836l-7.486-3.439c-27.4-12.804-62.892-32.903-85.933-53.308l-17.707 16.699c18.679 16.182 46.806 34.44 68.91 45.35l7.263 3.389c14.874 6.742 8.202 17.878-.282 16.628l-.39-.063c-2.71-.417-5.316-1.832-7.75-3.046l-9.8-5.127c-24.561-13.497-48.08-28.241-69.352-46.621-1.81 2.267-4.123 4.243-6.238 6.218l-9.265 8.39 12.175 10.312c7.845 6.312 15.952 12.028 24.499 17.352l19.183 11.587c3.27 1.896 7.125 3.547 10.083 5.882 6.547 5.167 1.51 16.65-6.948 13.598-3.438-1.24-6.709-3.517-9.904-5.301-21.631-12.074-41.371-25.893-59.789-42.376l-14.344 13.216c8.474 8.252 18.08 15.977 27.844 22.664L270 326.96c2.258 1.464 5.216 3.409 5.69 6.29.644 3.912-2.962 8.813-6.884 9.362-4.71.659-11.279-4.903-15.051-7.41l-24.983-18.039-14.463-11.947c-.578.013-.704.458-1.077.872L202.1 317.303c2.055 2.498 4.631 4.76 6.941 7.031l16.892 16.081c2.39 2.24 5.695 4.686 7.588 7.341 4.056 5.69-2.802 13.401-9.04 11.294-3.458-1.169-6.798-5.041-9.437-7.488l-17.116-16.236c-1.005-.975-5.534-5.785-6.365-5.922L174.736 346.5c15.56 21.466 23.748 40.917 29.191 67.237l2.191 13.274c.642 3.403.605 7.21.626 10.666.116 19.233-2.854 40.998-16.097 55.948-16.857 19.03-26.311.113-35.459-13.258zM465.881 25.298c-26.026.344-51.846 4.178-77.255 9.642-34.897 7.505-61.048 17.53-92.849 34.086 10.225 32.614 28.945 64.555 54.072 88.08 6.702 6.275 7.863 8.794 1.544 15.211l-5.936 5.966c-2.257 2.28-4.386 4.727-6.74 6.902l7.191 5.742c23.967 18.079 53.569 34.37 81.733 44.871 5.149-6.917 10.476-13.592 15.173-20.841 26.245-40.505 42.473-88.903 44.963-137.26l.121-38.072c-.069-2.075-.399-4.176-.563-6.25l-.31-7.895zM282.255 78.64c-9.247 5.858-18.445 13.34-26.229 21.08 5.686 13.802 33.339 42.858 43.904 52.945l17.914 16.076 5.782 4.727c.896.713 1.854 1.662 2.885 2.155l6.966-7.046c.78-.77 2.55-2.088 2.883-3.097-18.031-18.576-32.697-38.656-43.634-62.169l-6.753-15.648c-1.22-3.002-2.281-6.12-3.718-9.023m-38.168 32.158c-5.234 5.912-11.495 11.224-16.074 17.662 6.396 19.779 35.556 50.51 50.285 64.247l16.037 14.247 2.474-2.53 17.802-18.246c-19.29-14.175-42.367-38.035-56.857-56.427l-8.584-11.535c-1.692-2.445-3.236-5.098-5.083-7.418m83.134 85.56-21.326 19.923c18.241 15.402 39.237 28.824 60.403 39.694l28.934 13.149 21.432-20.666c-33.77-14.875-59.868-29.728-89.443-52.1m-264.65 123.99c-13.012.808-27.36 2.99-37.607 11.752 5.448 4.462 11.388 8.468 17.173 12.486l26.613 17.646 43.234 25.14 2.338-2.162 38.581-38.371c-20.599-15.689-63.318-27.855-90.331-26.491m101.459 37.41-36.156 36.224c-1.545 1.512-3.15 3.207-4.945 4.417l43.471 70.73 11.587 16.083c27.166-31.331 8.907-97.245-13.957-127.454"/><path d="M431.273 87.965c-29.728-.192-33.968-42.728-.884-45.614 11.268-.654 22.243 9.823 23.345 20.78 1.36 13.517-9.457 23.822-22.461 24.834m-1.549-29.914c-10.316 2.193-8.073 14.134 1.278 14.367 10.382-1.63 8.185-15.083-1.278-14.367"/></svg>