<svg xmlns="http://www.w3.org/2000/svg" viewBox="0 0 512 512"><path fill="#1E2022" d="M366.149 511.999c-20.527 0-40.7-5.487-58.341-15.868a7.53 7.53 0 0 1 7.637-12.979c15.328 9.02 32.861 13.787 50.704 13.787 45.009 0 84.763-30.344 96.675-73.791a1379 1379 0 0 0 26.429-115.801 1409 1409 0 0 0 6.071-35.806c6.476-41.502-6.752-82.445-36.295-112.329-34.785-35.193-84.107-46.104-127.811-34.046a7.52 7.52 0 0 1-9.261-5.255 7.53 7.53 0 0 1 5.255-9.261c48.924-13.497 103.831-1.174 142.527 37.976 32.936 33.317 47.685 78.964 40.464 125.238a1425 1425 0 0 1-6.136 36.194 1395 1395 0 0 1-26.719 117.072c-13.702 49.97-59.428 84.869-111.199 84.869M17.856 359.357c-6.112-27.555-11.535-56.284-16.101-85.49-6.587-42.232 5.564-85.057 33.336-117.498 37.397-43.682 96.022-60.513 149.654-45.717a7.53 7.53 0 0 1 5.255 9.261 7.527 7.527 0 0 1-9.261 5.255c-48.002-13.244-100.603 1.739-134.209 40.994-24.908 29.095-35.805 67.505-29.897 105.382 4.598 29.408 10.006 57.876 15.925 84.553a7.53 7.53 0 0 1-14.702 3.26m127.952 152.642c-51.772 0-97.498-34.899-111.197-84.868a1378 1378 0 0 1-8.713-33.395 7.53 7.53 0 0 1 5.504-9.116c4.031-.995 8.119 1.466 9.116 5.504a1351 1351 0 0 0 8.617 33.025c11.911 43.447 51.665 73.791 96.674 73.791 17.841 0 35.375-4.768 50.706-13.787a7.526 7.526 0 0 1 10.307 2.672 7.53 7.53 0 0 1-2.672 10.307c-17.644 10.38-37.817 15.867-58.342 15.867"/><path fill="#1E2022" d="M357.416 115.605c-10.317-27.383-38.809-44.139-67.903-39.571a7.53 7.53 0 0 1-2.337-14.877c36.141-5.679 71.525 15.15 84.333 49.137a7.53 7.53 0 0 1-4.391 9.701c-3.867 1.458-8.225-.473-9.702-4.39m-212.577 4.392a7.53 7.53 0 0 1-4.391-9.701c14.83-39.355 59.277-60.128 99.234-45.251a7.528 7.528 0 1 1-5.255 14.111c-32.161-11.973-67.95 4.77-79.886 36.449a7.53 7.53 0 0 1-9.702 4.392"/><path fill="#1E2022" d="M255.979 511.999c-53.635 0-101.005-36.154-115.193-87.921-14.095-51.389-25.59-104.556-34.121-159.127-6.826-43.769 5.769-88.155 34.555-121.78 57.154-66.759 159.755-71.146 222.124-8.027 33.062 33.431 49.564 80.923 41.938 129.805a1348 1348 0 0 1-3.3 20.234 7.53 7.53 0 1 1-14.843-2.533 1374 1374 0 0 0 3.264-20.017c6.741-43.211-7.026-85.818-37.769-116.903-55.958-56.63-148.354-53.062-199.975 7.236-25.922 30.278-37.263 70.248-31.116 109.662 8.194 52.419 19.392 105.072 33.765 157.468 12.402 45.245 53.798 76.844 100.671 76.844s88.269-31.599 100.67-76.842a1430 1430 0 0 0 24.188-103.072 7.529 7.529 0 1 1 14.778 2.894 1445 1445 0 0 1-24.444 104.16c-14.187 51.765-61.557 87.919-115.192 87.919"/><path fill="#1E2022" d="M231.127 107.412a7.527 7.527 0 0 1-6.876-8.129c1.677-20.105 9.546-58.636 43.397-90.798 13.996-13.306 36.755-10.63 47.284 5.706 8.068 12.52 5.6 28.592-4.773 38.458-17.253 16.379-22.867 35.085-24.538 47.894-.537 4.124-4.328 7.024-8.44 6.491a7.53 7.53 0 0 1-6.491-8.44c1.986-15.225 8.647-37.448 29.096-56.861 5.341-5.079 6.493-13.172 2.488-19.384-5.395-8.371-17.076-9.774-24.252-2.948-30.236 28.727-37.266 63.164-38.766 81.135-.351 4.212-4.072 7.23-8.129 6.876"/></svg>