<svg xmlns="http://www.w3.org/2000/svg" viewBox="0 0 64 64"><path d="M56.195 7.804a18.163 18.163 0 0 0-27.75 2.473l-14.12 20.33a9.18 9.18 0 0 0 .589 11.26l-4.481 4.481a5.06 5.06 0 0 0-3.409-.827 5.13 5.13 0 0 0-3.776 2.401 5.05 5.05 0 0 0 0 5.346 5.21 5.21 0 0 0 5.103 2.424 5.08 5.08 0 0 0 2.38 5.059 5.04 5.04 0 0 0 5.344.001 5.13 5.13 0 0 0 2.403-3.777 5.08 5.08 0 0 0-.826-3.409l4.483-4.483a9.16 9.16 0 0 0 11.256.592l20.333-14.12a18.5 18.5 0 0 0 2.5-2.088 18.167 18.167 0 0 0-.029-25.663M15.6 52.791a1 1 0 0 0 0 1.414 3.105 3.105 0 0 1-.587 4.853 3.103 3.103 0 0 1-4.68-3.09 2.04 2.04 0 0 0-2.02-2.32 2 2 0 0 0-.29.02A3.105 3.105 0 1 1 9.796 48.4a1 1 0 0 0 1.414 0l5.097-5.097 4.391 4.39Zm39.21-20.738a16.6 16.6 0 0 1-2.228 1.86l-20.334 14.12a7.19 7.19 0 0 1-9.205-.822l-.224-.224v-.001l-5.805-5.805h-.002l-.224-.225a7.19 7.19 0 0 1-.821-9.207l14.12-20.33A16.12 16.12 0 0 1 41.922 4.55q.725-.064 1.445-.064A16.164 16.164 0 0 1 54.81 32.053"/></svg>