<svg xmlns="http://www.w3.org/2000/svg" xml:space="preserve" width="91" height="91"><g fill="#010101"><path d="M64.1 80.61h-1.458c-1.149 0-2.083.934-2.083 2.083s.934 2.082 2.083 2.082H64.1a2.083 2.083 0 0 0 0-4.165"/><path d="M88.397 80.61h-2.094L52.976 41.139a2 2 0 0 0-.12-.13c-3.938-3.935-10.342-3.934-14.277 0a2 2 0 0 0-.119.13L5.151 80.61H2.795a2.083 2.083 0 0 0 0 4.165h50.992a2.083 2.083 0 0 0 0-4.165H10.6l30.98-36.714a5.943 5.943 0 0 1 8.275.001l31 36.713h-9.04a2.083 2.083 0 0 0 0 4.165h16.583a2.084 2.084 0 0 0-.001-4.165"/><path d="M34.927 60.069a2.075 2.075 0 0 0-2.071 2.084c0 1.148.943 2.081 2.092 2.081a2.084 2.084 0 0 0 0-4.165zm14.637 4.165a2.084 2.084 0 0 0 2.082-2.081 2.086 2.086 0 0 0-2.082-2.084h-.022a2.075 2.075 0 0 0-2.071 2.084 2.09 2.09 0 0 0 2.093 2.081m-7.308 0a2.083 2.083 0 0 0 0-4.165h-.022a2.075 2.075 0 0 0-2.071 2.084c0 1.149.944 2.081 2.093 2.081m3.674-6.216a2.084 2.084 0 0 0 2.082-2.082 2.085 2.085 0 0 0-2.082-2.083h-.02a2.075 2.075 0 0 0-2.071 2.083 2.09 2.09 0 0 0 2.091 2.082m7.309 0a2.085 2.085 0 0 0 2.083-2.082 2.085 2.085 0 0 0-2.083-2.083h-.022c-1.148 0-2.07.934-2.07 2.083a2.09 2.09 0 0 0 2.092 2.082m-11.488-4.165a2.09 2.09 0 0 0-2.092-2.082 2.084 2.084 0 0 0-2.083 2.082c0 1.148.934 2.081 2.083 2.081h.021a2.07 2.07 0 0 0 2.071-2.081m2.341-3.099a2.085 2.085 0 0 0 2.083-2.083 2.084 2.084 0 0 0-2.083-2.081h-.021A2.074 2.074 0 0 0 42 48.671c0 1.148.943 2.083 2.092 2.083M61.68 63.182a2.083 2.083 0 0 0-2.081-2.081h-.021a2.074 2.074 0 0 0-2.071 2.081c0 1.149.943 2.084 2.093 2.084 1.147 0 2.08-.935 2.08-2.084m-35.034 6.173a2.074 2.074 0 0 0-2.071 2.081c0 1.149.943 2.083 2.092 2.083a2.085 2.085 0 0 0 2.082-2.083 2.084 2.084 0 0 0-2.082-2.081zm23.201-40.389a2.084 2.084 0 0 0 2.081-2.083v-.021a2.074 2.074 0 0 0-2.081-2.072 2.093 2.093 0 0 0-2.083 2.092c0 1.149.933 2.084 2.083 2.084m-4.133-16.304a2.083 2.083 0 0 0 2.082-2.083v-.02c0-1.15-.933-2.072-2.082-2.072s-2.082.943-2.082 2.092.934 2.083 2.082 2.083m-2.719 14.003a2.083 2.083 0 0 0 2.082-2.083v-.021c0-1.15-.933-2.071-2.082-2.071s-2.083.943-2.083 2.092.933 2.083 2.083 2.083m0 7.307a2.08 2.08 0 0 0 2.082-2.082v-.021c0-1.15-.933-2.071-2.082-2.071s-2.083.943-2.083 2.092.933 2.082 2.083 2.082"/></g></svg>