<svg xmlns="http://www.w3.org/2000/svg" viewBox="0 0 512 512"><path d="M413.5 181c0-33.084-26.916-60-60-60h-195c-33.084 0-60 26.916-60 60s26.916 60 60 60h195c33.154 0 60-26.844 60-60m-300 0c0-24.813 20.187-45 45-45s45 20.187 45 45-20.187 45-45 45-45-20.187-45-45m84.623-45H353.5c24.813 0 45 20.187 45 45 0 24.863-20.135 45-45 45H198.123c27.2-23.978 27.139-66.076 0-90M211 391c7.831 0 15.392-1.475 22.53-4.382 14.402 5.84 30.629 5.853 45 0A59.7 59.7 0 0 0 301 391c33.084 0 60-26.916 60-60s-26.916-60-60-60a59.7 59.7 0 0 0-22.47 4.382c-14.335-5.839-30.563-5.854-45 0C226.392 272.475 218.831 271 211 271c-33.084 0-60 26.916-60 60s26.916 60 60 60m135-60c0 24.813-20.187 45-45 45s-45-20.187-45-45 20.187-45 45-45 45 20.187 45 45m-84.944-44.722c-26.744 23.913-26.739 65.536 0 89.444C234.106 378.707 211 357.565 211 331c0-24.813 20.187-45 45-45q2.557.001 5.056.278m-45 0c-26.744 23.913-26.739 65.536 0 89.444C189.106 378.707 166 357.565 166 331c0-26.584 23.121-47.702 50.056-44.722"/><path d="M417.234 58.451a7.5 7.5 0 0 0-9.489 11.617C463.833 115.877 496 183.646 496 256c0 132.336-107.664 240-240 240S16 388.336 16 256 123.664 16 256 16c45.545 0 89.861 12.811 128.159 37.048a7.501 7.501 0 0 0 8.022-12.676C351.479 14.615 304.389 1 256 1 115.068 1 1 115.049 1 256c0 140.932 114.049 255 255 255 140.932 0 255-114.049 255-255 0-76.876-34.176-148.88-93.766-197.549"/><path d="M158.843 450.637C189.153 465.808 221.841 473.5 256 473.5c120.206 0 217.5-97.277 217.5-217.5 0-120.206-97.277-217.5-217.5-217.5-120.206 0-217.5 97.277-217.5 217.5 0 71.277 35.004 138.123 93.634 178.812a7.5 7.5 0 0 0 10.438-1.885 7.5 7.5 0 0 0-1.885-10.438C86.093 384.602 53.5 322.363 53.5 256c0-111.659 90.841-202.5 202.5-202.5S458.5 144.341 458.5 256 367.659 458.5 256 458.5c-31.807 0-62.236-7.158-90.442-21.277a7.5 7.5 0 0 0-6.715 13.414"/></svg>