<svg xmlns="http://www.w3.org/2000/svg" viewBox="0 0 512 512"><path d="M343.806 183.729A120.47 120.47 0 0 1 308.5 98.5V67.785c8.625-2.321 15-10.188 15-19.535v-27C323.5 10.084 314.416 1 303.25 1h-94.5c-11.166 0-20.25 9.084-20.25 20.25v27c0 9.348 6.375 17.214 15 19.535-.012 31.768.029 31.482-.042 33.863-.78 30.616-13.001 59.816-35.264 82.081A135.46 135.46 0 0 0 128.5 279.57v85.18c0 4.143 3.357 7.5 7.5 7.5s7.5-3.357 7.5-7.5v-85.18c0-18.177 4.036-36.349 12.563-53.57H274.17c4.143 0 7.5-3.357 7.5-7.5s-3.357-7.5-7.5-7.5H164.9a121 121 0 0 1 13.904-16.666c12.042-12.043 21.536-25.952 28.218-41.074l34.412 21.008c8.1 4.945 18.167 4.948 26.271.001l36.746-22.43c6.807 15.912 16.466 30.205 28.746 42.495A122 122 0 0 1 347.13 211h-42.96c-4.143 0-7.5 3.357-7.5 7.5s3.357 7.5 7.5 7.5h51.836c8.17 16.442 12.494 34.672 12.494 53.57V436h-225v-41.25c0-4.143-3.357-7.5-7.5-7.5s-7.5 3.357-7.5 7.5v63.75c0 28.948 23.552 52.5 52.5 52.5h88.64c4.143 0 7.5-3.357 7.5-7.5s-3.357-7.5-7.5-7.5H181c-20.678 0-37.5-16.822-37.5-37.5V451h225v7.5c0 20.678-16.822 37.5-37.5 37.5h-31.36c-4.143 0-7.5 3.357-7.5 7.5s3.357 7.5 7.5 7.5H331c28.948 0 52.5-23.552 52.5-52.5V279.57c0-36.207-14.098-70.244-39.694-95.841m-83.916-67.265a10.17 10.17 0 0 1-10.641 0L218.5 97.692V68.5h75v27.443zM203.5 21.25a5.256 5.256 0 0 1 5.25-5.25h94.5a5.256 5.256 0 0 1 5.25 5.25v27a5.256 5.256 0 0 1-5.25 5.25h-94.5a5.256 5.256 0 0 1-5.25-5.25zm56.391 140.215a10.17 10.17 0 0 1-10.641 0l-36.87-22.508a135 135 0 0 0 5.164-24.274l23.889 14.584c8.104 4.948 18.171 4.948 26.274 0l26.576-16.226a134 134 0 0 0 4.934 24.42z"/><path d="M273.052 262.678a7.5 7.5 0 0 0 3.263-10.093 7.503 7.503 0 0 0-10.093-3.263c-12.489 6.388-16.24 18.765-17.325 26.816-34.8 3.582-61.76 33.097-61.76 68.499 0 37.972 30.892 68.863 68.863 68.863s68.863-30.892 68.863-68.863c0-34.854-26.214-64.319-60.794-68.376.918-4.68 3.227-10.64 8.983-13.583m12.991 37.273c-17.577 13.093-42.161 13.353-60.087 0 18.151-12.243 41.932-12.246 60.087 0M256 398.5c-29.7 0-53.863-24.163-53.863-53.863 0-13.109 4.712-25.134 12.524-34.484 23.988 19.635 58.695 19.632 82.679 0 7.812 9.35 12.524 21.375 12.524 34.484-.001 29.7-24.164 53.863-53.864 53.863"/></svg>