<svg xmlns="http://www.w3.org/2000/svg" viewBox="0 0 128 128"><path d="M6.08 128h27.84a6.023 6.023 0 0 0 6.08-5.94V52.18a18.3 18.3 0 0 0-1.7-7.72c-3.59-7.76-5.23-14.14-5.15-20.07a4.25 4.25 0 0 0-1.25-3.06 4.47 4.47 0 0 0-2.9-1.32V15.5a4.42 4.42 0 0 0-2.284-3.786L24.698 3.53A4.56 4.56 0 0 0 20.22 0a4.56 4.56 0 0 0-4.48 3.53l-1.955 7.935A4.48 4.48 0 0 0 11 15.5v4.51a4.47 4.47 0 0 0-2.9 1.32 4.25 4.25 0 0 0-1.25 3.06c.08 5.93-1.56 12.31-5.15 20.07A18.3 18.3 0 0 0 0 52.18v69.88A6.023 6.023 0 0 0 6.08 128M19.625 4.487a.607.607 0 0 1 1.19 0L22.42 11h-4.4ZM15 15.5c0-.18.35-.5.92-.5h8.16c.57 0 .92.32.92.5V20H15ZM4 52.18a14.4 14.4 0 0 1 1.33-6.04 63.5 63.5 0 0 0 4.568-13.07h13.228a2 2 0 0 0 0-4H10.587a36.5 36.5 0 0 0 .263-4.73.27.27 0 0 1 .09-.2.5.5 0 0 1 .33-.14h17.46a.5.5 0 0 1 .33.14.27.27 0 0 1 .09.2c-.08 6.55 1.67 13.47 5.52 21.8A14.4 14.4 0 0 1 36 52.18V102H4ZM4 106h32v4H4Zm0 8h32v8.06a2.014 2.014 0 0 1-2.08 1.94H6.08A2.014 2.014 0 0 1 4 122.06Z"/><path d="M20 44a12 12 0 1 0 12 12 12.013 12.013 0 0 0-12-12m0 20a8 8 0 1 1 8-8 8.01 8.01 0 0 1-8 8m106 22h-7.284a7 7 0 0 0-1.802-3.897 7.8 7.8 0 0 0-3.936-2.19 9.7 9.7 0 0 0-2.955-6.382 11.13 11.13 0 0 0-6.425-2.71c-.304-1.768-1.544-4.108-5.436-6.101-3.71-1.899-2.292-5.547-1.975-6.247a2 2 0 0 0-2.038-2.835 14.49 14.49 0 0 0-12.343 9.98 8.96 8.96 0 0 0-5.73.25 12.38 12.38 0 0 0-6.008 5.842c-5.775.823-9.705 2.976-11.69 6.407A11.4 11.4 0 0 0 57.253 86H48a2 2 0 0 0-2 2c0 21.505 18.393 39 41 39s41-17.495 41-39a2 2 0 0 0-2-2M91.687 60.314a7.97 7.97 0 0 0 4.651 7.966 7.34 7.34 0 0 1 3.045 2.47c-8.614-.173-12.44-1.998-13.991-3.126a10.69 10.69 0 0 1 6.295-7.31m-14.154 9.28a5.5 5.5 0 0 1 4.307.272c1.813 1.895 6.612 4.899 18.83 4.899q.75 0 1.536-.015c.023 0 .044-.007.066-.008a7.76 7.76 0 0 1 5.023 1.715 5.7 5.7 0 0 1 1.658 3.5c-18.661 1.776-31.01-4.63-34.955-7.071a7.8 7.8 0 0 1 3.535-3.292M61.84 80.12c1.365-2.36 4.42-3.855 9.048-4.472 2.833 1.946 13.853 8.633 31.503 8.633a74 74 0 0 0 9.075-.578 4.26 4.26 0 0 1 2.528 1.134 2.86 2.86 0 0 1 .64 1.163H61.35a7.9 7.9 0 0 1 .491-5.88M87 123c-15.947 0-29.567-9.594-34.756-23h69.512c-5.19 13.406-18.81 23-34.756 23m36.014-27H50.986a33 33 0 0 1-.926-6h73.88a33 33 0 0 1-.926 6"/><path d="M76.246 117.31a2 2 0 0 0 1.235-3.804 28.95 28.95 0 0 1-13.816-9.494 2 2 0 1 0-3.133 2.486 32.93 32.93 0 0 0 15.714 10.813"/></svg>