<svg xmlns="http://www.w3.org/2000/svg" width="30" height="30" fill="none"><g clip-path="url(#a)"><path fill="#1E2022" d="M27.964 21.592h-.375a5.712 5.712 0 0 0-8.255-3.718 5.7 5.7 0 0 0-7.355-1.129c-.331-.408-.495-.7-.495-1.232 0-.6.218-.879.493-1.232.303-.387.68-.87.68-1.772s-.377-1.384-.68-1.771c-.275-.353-.493-.632-.493-1.232 0-.777.37-1.02.73-1.548a3.97 3.97 0 0 0 2.93-1.648c.24-.337.637-.538 1.062-.538h11.978a1.76 1.76 0 0 0 1.243-3.001 1.75 1.75 0 0 0-1.243-.515h-2.637a.44.44 0 1 0 0 .879h2.637c.234 0 .455.091.621.257a.88.88 0 0 1-.621 1.5H16.206c-.708 0-1.372.34-1.777.907A3.1 3.1 0 0 1 12.61 7.01c.054-.29.06-.608.016-.915a2.195 2.195 0 0 0 1.494-2.081 2.2 2.2 0 0 0-1.838-2.168c.14-.223.262-.49.326-.83a3.07 3.07 0 0 1 1.82 1.212c.405.568 1.07.907 1.777.907h7.583a.44.44 0 1 0 0-.88h-7.583c-.424 0-.822-.2-1.062-.537a3.95 3.95 0 0 0-3.22-1.66H6.236c-.72 0-1.308.552-1.342 1.255a1.32 1.32 0 0 0 1.317 1.382h.12c-.073.227-.12.49-.12.806 0 .807.269 1.243.725 1.831h-.7c-.72 0-1.308.551-1.342 1.255a1.32 1.32 0 0 0 1.317 1.382h.501a2.46 2.46 0 0 0-.501 1.537c0 .902.376 1.385.679 1.772.275.353.493.632.493 1.231s-.218.879-.493 1.232c-.303.387-.68.87-.68 1.772 0 .901.377 1.384.68 1.771l.011.015a5.71 5.71 0 0 0-4.49 4.293h-.375a1.977 1.977 0 0 0-.338 3.925 7.78 7.78 0 0 0 7.02 4.424h9.192a.44.44 0 1 0 0-.878H8.718a6.9 6.9 0 0 1-6.015-3.516h3.683a.44.44 0 1 0 0-.879h-4.35a1.098 1.098 0 1 1 0-2.197h25.928a1.1 1.1 0 0 1 0 2.197H8.144a.44.44 0 1 0 0 .879h19.153a6.9 6.9 0 0 1-6.015 3.515h-1.614a.44.44 0 1 0 0 .88h1.614c1.606 0 3.15-.488 4.465-1.409a7.77 7.77 0 0 0 2.556-3.016 1.976 1.976 0 0 0-.34-3.925m-5.933-3.516a4.814 4.814 0 0 1 4.652 3.516h-.922a3.953 3.953 0 0 0-5.497-2.22 6 6 0 0 0-.405-.78 4.8 4.8 0 0 1 2.172-.516m-10.746-6.798c.275.353.492.632.492 1.231s-.217.879-.493 1.232c-.302.387-.679.87-.679 1.772 0 .888.366 1.37.666 1.754a6 6 0 0 0-.605.607 6 6 0 0 0-.324-.16c-.134-.421-.36-.711-.562-.97-.275-.354-.493-.632-.493-1.231s.218-.879.493-1.232c.303-.387.679-.87.679-1.772s-.376-1.384-.679-1.771c-.275-.353-.493-.632-.493-1.232s.218-.878.493-1.23c.303-.388.679-.87.679-1.773 0-.901-.377-1.384-.679-1.771-.275-.353-.493-.632-.493-1.231s.218-.878.493-1.231c.25-.32.548-.703.646-1.332h1.302c-.105.431-.37.672-.64 1.05l-.021.032c-.24.344-.462.79-.462 1.481 0 .902.377 1.384.68 1.772.275.352.492.63.492 1.23s-.217.879-.493 1.232c-.302.387-.679.87-.679 1.771 0 .902.377 1.385.68 1.772m1.957-7.264c0 .576-.368 1.068-.896 1.248-.38-.675-.862-.88-.862-1.761 0-.353.076-.595.194-.806h.246a1.32 1.32 0 0 1 1.318 1.319M6.211 1.816a.44.44 0 0 1-.439-.461c.011-.23.219-.417.464-.417h1.098c-.088.36-.286.585-.512.878zm-.439 4.812c.011-.23.219-.417.464-.417h1.127q.02.133.02.292c0 .238-.035.425-.093.587H6.21a.44.44 0 0 1-.438-.462m1.318 8.885c0-.6.217-.879.493-1.232.302-.387.679-.87.679-1.772s-.377-1.384-.68-1.771c-.275-.353-.492-.632-.492-1.232 0-1.292 1.172-1.337 1.172-3.003 0-.745-.232-1.199-.68-1.771C7.308 4.379 7.09 4.1 7.09 3.5s.217-.879.493-1.231c.249-.32.548-.704.646-1.332H9.53c-.079.322-.246.538-.444.79-.302.388-.679.87-.679 1.773s.377 1.384.68 1.772c.275.352.492.63.492 1.23s-.217.879-.493 1.232c-.302.387-.679.87-.679 1.771 0 .902.377 1.385.68 1.772.275.353.492.632.492 1.231s-.217.879-.493 1.232c-.302.387-.679.87-.679 1.772 0 .824.292 1.274.701 1.8a5.7 5.7 0 0 0-1.201-.114c-.379-.622-.818-.843-.818-1.686m.879 2.563c.76 0 1.502.178 2.172.515q-.232.373-.405.78a3.953 3.953 0 0 0-5.497 2.22h-.922a4.814 4.814 0 0 1 4.652-3.515m-2.78 3.516a3.08 3.08 0 0 1 4.266-1.375q-.166.661-.168 1.375zm8.493 0A1.32 1.32 0 0 1 15 20.273a1.32 1.32 0 0 1 1.318 1.319zM15 19.395a2.2 2.2 0 0 0-2.197 2.197h-.88A3.08 3.08 0 0 1 15 18.516a3.08 3.08 0 0 1 3.076 3.076h-.879A2.2 2.2 0 0 0 15 19.395m0-1.758a3.96 3.96 0 0 0-3.955 3.955h-.879A4.84 4.84 0 0 1 15 16.758a4.84 4.84 0 0 1 4.834 4.834h-.879A3.96 3.96 0 0 0 15 17.637m5.545 2.58a3.08 3.08 0 0 1 4.266 1.375h-4.098c0-.474-.059-.935-.168-1.375"/></g><defs><clipPath id="a"><path fill="#fff" d="M0 0h30v30H0z"/></clipPath></defs></svg>