<svg xmlns="http://www.w3.org/2000/svg" viewBox="0 0 128 128"><path d="M121 82.634v-.033c-.48-12.925-44.335-25.16-64.843-25.458-18.583-.264-37.015 4.923-44.833 12.628C8.46 72.593 7.007 75.691 7 78.978L7 78.984c-.22 13.272-.224 12.89-.211 13.02 1.396 13.173 12.386 20.931 30.152 21.287q.484.01.967.01c10.954 0 22.301-3.652 31.469-6.603 6.226-2.004 11.603-3.734 15.54-3.98 1.463-.091 3.285-.147 5.214-.206 9.956-.306 23.592-.725 28.781-6.278a7.5 7.5 0 0 0 2.088-5.56v-8.036ZM12.728 71.196c7.168-7.066 24.715-12.063 42.095-12.063q.653 0 1.304.01C77.69 59.456 118.593 72.028 119 82.67v.014a5.58 5.58 0 0 1-1.563 4.192c-4.643 4.98-18.322 5.436-27.374 5.737-1.858.062-3.613.12-5.054.21-4.232.265-9.778 2.217-16.199 4.477-9.733 3.426-20.771 7.31-31.611 7.093C21.65 104.082 9 92.69 9 79c0-2.741 1.254-5.367 3.729-7.805M117.45 94.868c-5.595 5.987-24.44 5.34-32.659 5.854-4.186.261-9.674 2.028-16.028 4.072-9.296 2.993-20.874 6.727-31.783 6.497-16.618-.332-26.891-7.415-28.197-19.438l.06-3.588c4.243 10.324 15.334 17.868 28.314 18.128q.442.009.882.009c10.939 0 22.277-3.992 31.434-7.215 6.28-2.21 11.705-4.12 15.66-4.368 1.411-.088 3.152-.146 4.995-.207 9.944-.33 23.562-.784 28.77-6.372.036-.039.066-.08.101-.119v2.59a5.51 5.51 0 0 1-1.55 4.157"/><path d="m32.732 92.114 4.387 5.483a1 1 0 0 0 1.561-1.249l-4.386-5.483a1 1 0 0 0-1.562 1.25zm-2.383-2.98a1 1 0 1 0 1.562-1.248L22.65 76.31a1 1 0 1 0-1.561 1.249zm5.94-8.473a1 1 0 0 0-1.562 1.249l12.6 15.75a1 1 0 0 0 1.561-1.25zm-4.799-2.796a1 1 0 1 0 1.562-1.25l-4.736-5.918a1 1 0 1 0-1.561 1.249zm24.789 18.29a1 1 0 0 0 1.561-1.25l-22.2-27.751a1 1 0 0 0-1.562 1.249zm4.62-10.124a1 1 0 1 0-1.562 1.25l4.703 5.879a1 1 0 0 0 1.562-1.25zm-4.855-2.866a1 1 0 0 0 1.562-1.25L45.03 66.197a1 1 0 1 0-1.562 1.249zm16.354 7.745a1 1 0 0 0 1.562-1.249L53.388 63.947a1 1 0 1 0-1.562 1.249zm8.357-2.25a1 1 0 1 0 1.561-1.25l-18.47-23.086a1 1 0 0 0-1.561 1.249zm8.356-2.251a1 1 0 0 0 1.561-1.25l-7.326-9.158a1 1 0 1 0-1.562 1.249zM78.613 73.287a1 1 0 1 0 1.562-1.25l-4.334-5.416a1 1 0 0 0-1.561 1.249zM97.47 84.16a1 1 0 0 0 1.562-1.25L88.808 70.133a1 1 0 0 0-1.562 1.25zm8.357-2.25a1 1 0 0 0 1.562-1.25l-6.9-8.623a1 1 0 1 0-1.56 1.25zm-79.84 14.244a1 1 0 0 0 1.562-1.249L18.61 83.733a1 1 0 0 0-1.562 1.25zM62.415 31.68c1.693 2.179 3.292 4.237 3.563 6.307a10.5 10.5 0 0 1-1.065 5.64 16.8 16.8 0 0 0-1.515 7.338 1 1 0 0 0 1 .964h.036a1 1 0 0 0 .963-1.036 14.9 14.9 0 0 1 1.376-6.531 12.4 12.4 0 0 0 1.188-6.635c-.34-2.609-2.184-4.98-3.967-7.274-1.846-2.375-3.754-4.831-3.956-7.458-.532-6.907 5.372-11.965 5.431-12.015a1 1 0 0 0-1.285-1.532c-.276.23-6.752 5.752-6.14 13.7.248 3.227 2.344 5.923 4.371 8.532m19.574 5.596c1.192 1.534 2.318 2.983 2.502 4.394a7.23 7.23 0 0 1-.747 3.911 12.3 12.3 0 0 0-1.108 5.384 1 1 0 0 0 1 .964h.035a1 1 0 0 0 .964-1.036 10.5 10.5 0 0 1 .969-4.578 9.15 9.15 0 0 0 .87-4.904c-.254-1.95-1.602-3.685-2.906-5.362-1.3-1.673-2.644-3.403-2.783-5.205-.37-4.81 3.76-8.357 3.802-8.392a1 1 0 0 0-1.285-1.532c-.203.17-4.96 4.226-4.511 10.078.185 2.4 1.717 4.372 3.198 6.278m-37.3 0c1.192 1.534 2.318 2.983 2.502 4.394a7.2 7.2 0 0 1-.747 3.911 12.3 12.3 0 0 0-1.108 5.384 1 1 0 0 0 1 .964h.036a1 1 0 0 0 .964-1.036 10.45 10.45 0 0 1 .968-4.578 9.15 9.15 0 0 0 .87-4.904c-.254-1.95-1.602-3.684-2.906-5.362-1.3-1.673-2.644-3.402-2.783-5.205-.37-4.81 3.76-8.357 3.802-8.392a1 1 0 0 0-1.285-1.532c-.203.17-4.961 4.226-4.51 10.078.184 2.4 1.715 4.372 3.197 6.278"/></svg>