<svg xmlns="http://www.w3.org/2000/svg" viewBox="0 0 64 64"><path d="M14.32 53.33C7 53.33 1 48.08 1 41.61a10.7 10.7 0 0 1 2.17-6.42 1 1 0 0 1 1.4-.2 1 1 0 0 1 .21 1.39A8.67 8.67 0 0 0 3 41.61c0 5.39 5.08 9.72 11.32 9.72S25.64 47 25.64 41.61a8.7 8.7 0 0 0-1.8-5.26 1 1 0 1 1 1.59-1.2 10.63 10.63 0 0 1 2.21 6.46c0 6.47-5.98 11.72-13.32 11.72"/><path d="M14 39.8a1 1 0 0 1-.78-.38A22 22 0 0 1 11 36.08a7.35 7.35 0 0 1-4.17.92c-.44-.05-2.72-.17-3.17-.16a1 1 0 0 1-1-.4 1 1 0 0 1 .12-1.3 10.6 10.6 0 0 0 1.29-1.74A7.05 7.05 0 0 1 7 30.48 7.2 7.2 0 0 1 9.57 30c.29 0 .59 0 .88-.07a2.3 2.3 0 0 0 1.69-.81A9.9 9.9 0 0 1 13.9 25a3.6 3.6 0 0 1 2.46-1.61 1 1 0 0 1 .21 2 1.86 1.86 0 0 0-1.08.83 7.9 7.9 0 0 0-1.31 2.94 12.9 12.9 0 0 0 3.89.79h.12c.29 0 .58 0 .88.07a7.2 7.2 0 0 1 2.59.47 7.1 7.1 0 0 1 2.91 2.92 10 10 0 0 0 1.29 1.69 1 1 0 0 1-1 1.67 24 24 0 0 0-3.06.23 7.44 7.44 0 0 1-4.19-.88l-.47-.26a21.6 21.6 0 0 1-2.35 3.61 1 1 0 0 1-.79.33m-2.56-6.13a1 1 0 0 1 .93.62A14.3 14.3 0 0 0 14 37.13 13.2 13.2 0 0 0 15.75 34a1 1 0 0 1 .64-.61 1 1 0 0 1 .87.13 13 13 0 0 0 1.26.78 5.64 5.64 0 0 0 3.06.68q.89-.11 1.53-.15l-.21-.32a5.53 5.53 0 0 0-2-2.19A5.7 5.7 0 0 0 19 32c-.33 0-.66 0-1-.07h-.12a14.3 14.3 0 0 1-4.61-1 4.63 4.63 0 0 1-2.57 1c-.33 0-.66.06-1 .07a5.8 5.8 0 0 0-1.89.31 5.6 5.6 0 0 0-2 2.19l-.22.35c.82 0 1.54.12 1.55.12a5.6 5.6 0 0 0 3.05-.68 9 9 0 0 0 .79-.46 1.06 1.06 0 0 1 .46-.16m38.25 17.54c-7.34 0-13.32-5.26-13.32-11.72a10.68 10.68 0 0 1 2.18-6.42 1 1 0 0 1 1.41-.2 1 1 0 0 1 .19 1.4 8.7 8.7 0 0 0-1.78 5.22c0 5.36 5.08 9.72 11.32 9.72S61 44.85 61 39.49a8.72 8.72 0 0 0-1.8-5.26 1 1 0 0 1 .2-1.4 1 1 0 0 1 1.4.2 10.68 10.68 0 0 1 2.2 6.46c0 6.51-6 11.72-13.31 11.72"/><path d="M49.37 37.67a1 1 0 0 1-.79-.38A22 22 0 0 1 46.37 34a7.36 7.36 0 0 1-4.17.88c-.44 0-2.71-.18-3.18-.17a1 1 0 0 1-1-.4 1 1 0 0 1 .12-1.3 9.6 9.6 0 0 0 1.28-1.69 7.2 7.2 0 0 1 2.92-2.92 7.2 7.2 0 0 1 2.59-.47c.29 0 .59 0 .88-.06a2.3 2.3 0 0 0 1.7-.87 9.9 9.9 0 0 1 1.76-4.14 3.6 3.6 0 0 1 2.46-1.61 1 1 0 0 1 .21 2 1.86 1.86 0 0 0-1.08.83 7.4 7.4 0 0 0-1.19 2.5 12.8 12.8 0 0 0 3.89 1.25c.29 0 .58 0 .88.06a7.1 7.1 0 0 1 2.58.47 7.2 7.2 0 0 1 2.92 2.92A9.6 9.6 0 0 0 61.23 33a1 1 0 0 1 .12 1.3 1 1 0 0 1-1.13.37 27 27 0 0 0-3 .2 7.44 7.44 0 0 1-4.22-.93l-.47-.26a21.6 21.6 0 0 1-2.35 3.61 1 1 0 0 1-.81.38m-2.56-6.13a1 1 0 0 1 .3.05 1 1 0 0 1 .62.57A15 15 0 0 0 49.37 35a13.4 13.4 0 0 0 1.75-3.13 1 1 0 0 1 .64-.62 1 1 0 0 1 .87.13 11 11 0 0 0 1.26.78 5.63 5.63 0 0 0 3 .68c.6-.07 1.11-.12 1.54-.15l-.21-.32a5.53 5.53 0 0 0-2.05-2.19 5.5 5.5 0 0 0-1.89-.3c-.33 0-.67 0-1-.08A14.8 14.8 0 0 1 49 28.43a4.34 4.34 0 0 1-3 1.37c-.33 0-.66.06-1 .08a5.5 5.5 0 0 0-1.89.3 5.6 5.6 0 0 0-2 2.19l-.22.35c.83.05 1.54.12 1.55.12a5.63 5.63 0 0 0 3-.68c.27-.14.54-.3.79-.46a1 1 0 0 1 .58-.16m13.27 3"/><path d="M61.2 27.46a1 1 0 0 1-.6-.2 24.8 24.8 0 0 0-8.26-3.93A28 28 0 0 0 41.25 23a35 35 0 0 0-5.8 1.75c-.58.21-1.16.43-1.75.63a1 1 0 0 1-1.33-.95 1 1 0 0 1 .74-1l1.66-.6A36.7 36.7 0 0 1 40.9 21a29.5 29.5 0 0 1 12 .36 26.8 26.8 0 0 1 8.94 4.25 1 1 0 0 1 .21 1.4 1 1 0 0 1-.85.45m-36.82-.06a16 16 0 0 1-1.85-.11c-4.53-.56-8.9-3.31-12.3-7.74a1 1 0 0 1 1.58-1.22c1.78 2.32 5.58 6.31 11 7a16.5 16.5 0 0 0 5.8-.44 1 1 0 0 1 1.2.75 1 1 0 0 1-.74 1.2 20.4 20.4 0 0 1-4.69.56"/><path d="M37.48 23.23h-.33A6.65 6.65 0 0 1 32 18.64a7.76 7.76 0 0 1 .44-3.92 6.4 6.4 0 0 0 .41-2.87 1 1 0 0 1 1.68-.91A11.2 11.2 0 0 0 37 12.58c.51.29 1 .58 1.57.91 2 1.32 3.15 3.11 3 4.91a6.37 6.37 0 0 1-2.08 4 3.15 3.15 0 0 1-2.01.83m-2.73-9.61a13.5 13.5 0 0 1-.43 1.66 6.3 6.3 0 0 0-.4 2.92 4.7 4.7 0 0 0 3.47 3 1.17 1.17 0 0 0 .85-.33 4.38 4.38 0 0 0 1.36-2.62c.1-1.54-1.6-2.76-2.13-3.1s-.95-.56-1.44-.83-.85-.44-1.28-.7"/><path d="M38 23.49a1 1 0 0 1-1-.94 12.9 12.9 0 0 0-1.34-5.06 1 1 0 1 1 1.67-1.09c1.44 2.19 1.66 5.88 1.67 6a1 1 0 0 1-1 1zm-9.47 12.1a1.1 1.1 0 0 1-.39-.08 1 1 0 0 1-.61-1 11.4 11.4 0 0 0-.26-3c-.1-.58-.21-1.18-.27-1.8-.24-2.42.47-4.4 1.94-5.43a6.44 6.44 0 0 1 4.46-.88 3.1 3.1 0 0 1 2.08 1.37 6.64 6.64 0 0 1-.35 6.89 7.77 7.77 0 0 1-3.34 2.1 6.54 6.54 0 0 0-2.5 1.46 1 1 0 0 1-.76.37m3.83-10.27a4.44 4.44 0 0 0-2.27.62c-1.26.88-1.16 3-1.1 3.6s.15 1.1.25 1.65.17.95.23 1.44a16 16 0 0 1 1.57-.7 6.15 6.15 0 0 0 2.53-1.5 4.7 4.7 0 0 0 .2-4.6 1.13 1.13 0 0 0-.78-.45 3.2 3.2 0 0 0-.63-.06m2 5.73"/><path d="M31 30.23a.9.9 0 0 1-.32-.05 1 1 0 0 1-.63-1.26c.82-2.49 3.57-5 3.69-5.06a1 1 0 0 1 1.33 1.49 12.7 12.7 0 0 0-3.07 4.2 1 1 0 0 1-1 .68"/></svg>