<svg xmlns="http://www.w3.org/2000/svg" width="24" height="24" fill="none"><path fill="#000" fill-rule="evenodd" d="M12 5a8.5 8.5 0 1 0 0 17 8.5 8.5 0 0 0 0-17m-9.5 8.5a9.5 9.5 0 1 1 19 0 9.5 9.5 0 0 1-19 0" clip-rule="evenodd"/><path fill="#000" fill-rule="evenodd" d="M10 18a3.5 3.5 0 0 1-3.33-2.417l-.95.309A4.5 4.5 0 0 0 10 19zm1.5-13.5v-3h1v3z" clip-rule="evenodd"/><path fill="#000" fill-rule="evenodd" d="m12 3.985-3.879-.97-.242.97 4 1a.5.5 0 0 0 .242 0l4-1-.242-.97z" clip-rule="evenodd"/></svg>