<svg xmlns="http://www.w3.org/2000/svg" viewBox="0 0 100 100"><path d="M37 45c-3.3 0-6 2.7-6 6s2.7 6 6 6 6-2.7 6-6-2.7-6-6-6m0 8c-1.1 0-2-.9-2-2s.9-2 2-2 2 .9 2 2-.9 2-2 2m20 2c0 1.1-.9 2-2 2s-2-.9-2-2 .9-2 2-2 2 .9 2 2m36 8h-4v-4c0-5.5-4.5-10-10-10v-4c0-5.5-4.5-10-10-10v-2c0-5.5-4.5-10-10-10H41c-5.5 0-10 4.5-10 10v2c-5.5 0-10 4.5-10 10v4c-5.5 0-10 4.5-10 10v4H7c-1.1 0-2 .9-2 2 0 6.6 5.4 12 12 12h66c6.6 0 12-5.4 12-12 0-1.1-.9-2-2-2m-78-4c0-3.3 2.7-6 6-6v2c0 1.1.9 2 2 2s2-.9 2-2V45c0-3.3 2.7-6 6-6h10c1.1 0 2-.9 2-2s-.9-2-2-2h-6v-2c0-3.3 2.7-6 6-6h18c3.3 0 6 2.7 6 6v2h-2c-5.5 0-10 4.5-10 10 0 1.1.9 2 2 2s2-.9 2-2c0-3.3 2.7-6 6-6h6c3.3 0 6 2.7 6 6v4h-6c-1.1 0-2 .9-2 2s.9 2 2 2h10c3.3 0 6 2.7 6 6v4H15zm68 14H17c-3.7 0-6.9-2.5-7.8-6h81.5c-.8 3.5-4 6-7.7 6"/></svg>