<svg xmlns="http://www.w3.org/2000/svg" viewBox="0 0 64 64" id="oven">
  <path d="M6.552,3a2.7,2.7,0,0,0-2.7,2.7V60a1,1,0,0,0,1,1h8.079a1,1,0,0,0,.913-.593l2.274-5.1H48.71l2.274,5.1A1,1,0,0,0,51.9,61h8.08a1,1,0,0,0,1-1V5.7a2.7,2.7,0,0,0-2.7-2.7ZM58.977,53.309H5.853V16.793H58.977ZM12.283,59H5.853V55.309H13.93Zm46.694,0H52.546L50.9,55.309h8.078Zm0-53.3v9.095H5.853V5.7a.7.7,0,0,1,.7-.7H58.277A.7.7,0,0,1,58.977,5.7Z"></path>
  <path d="M12.583 48.241H52.246a1 1 0 001-1V22.86a1 1 0 00-1-1H12.583a1 1 0 00-1 1V47.241A1 1 0 0012.583 48.241zm1-5.492H31.415v3.492H13.583zm19.832 3.492V42.749H51.246v3.492zM51.246 23.86V40.749H13.583V23.86zM41.6 6.356a3.541 3.541 0 103.54 3.54A3.544 3.544 0 0041.6 6.356zm0 5.081A1.541 1.541 0 1143.136 9.9 1.542 1.542 0 0141.6 11.437zM52.056 6.356A3.541 3.541 0 1055.6 9.9 3.544 3.544 0 0052.056 6.356zm0 5.081A1.541 1.541 0 1153.6 9.9 1.542 1.542 0 0152.056 11.437zM31.135 6.356a3.541 3.541 0 103.54 3.54A3.544 3.544 0 0031.135 6.356zm0 5.081A1.541 1.541 0 1132.675 9.9 1.542 1.542 0 0131.135 11.437z"></path>
  <rect width="11.589" height="2" x="10.93" y="8.896"></rect>
  <rect width="2" height="6.141" x="45.509" y="25.474" transform="rotate(-44.994 46.508 28.544)"></rect>
  <rect width="2" height="10.808" x="41.688" y="26.962" transform="rotate(-45 42.687 32.365)"></rect>
</svg>
